<?xml version="1.0" encoding="UTF-8" standalone="no"?>
<!-- Created with Inkscape (http://www.inkscape.org/) -->

<svg
   xmlns:dc="http://purl.org/dc/elements/1.1/"
   xmlns:cc="http://creativecommons.org/ns#"
   xmlns:rdf="http://www.w3.org/1999/02/22-rdf-syntax-ns#"
   xmlns:svg="http://www.w3.org/2000/svg"
   xmlns="http://www.w3.org/2000/svg"
   xmlns:sodipodi="http://sodipodi.sourceforge.net/DTD/sodipodi-0.dtd"
   xmlns:inkscape="http://www.inkscape.org/namespaces/inkscape"
   id="svg3055"
   version="1.1"
   inkscape:version="0.48.4 r9939"
   width="640"
   height="962"
   sodipodi:docname="fox.svg">
  <metadata
     id="metadata3061">
    <rdf:RDF>
      <cc:Work
         rdf:about="">
        <dc:format>image/svg+xml</dc:format>
        <dc:type
           rdf:resource="http://purl.org/dc/dcmitype/StillImage" />
        <dc:title></dc:title>
      </cc:Work>
    </rdf:RDF>
  </metadata>
  <defs
     id="defs3059">
    <linearGradient
       id="linearGradient3962">
      <stop
         style="stop-color:#02130a;stop-opacity:1;"
         offset="0"
         id="stop3964" />
      <stop
         style="stop-color:#000000;stop-opacity:1;"
         offset="1"
         id="stop3966" />
    </linearGradient>
  </defs>
  <sodipodi:namedview
     pagecolor="#ffffff"
     bordercolor="#666666"
     borderopacity="1"
     objecttolerance="10"
     gridtolerance="10"
     guidetolerance="10"
     inkscape:pageopacity="0"
     inkscape:pageshadow="2"
     inkscape:window-width="1153"
     inkscape:window-height="1028"
     id="namedview3057"
     showgrid="false"
     inkscape:zoom="0.75455437"
     inkscape:cx="139.38142"
     inkscape:cy="401.98189"
     inkscape:window-x="1726"
     inkscape:window-y="24"
     inkscape:window-maximized="0"
     inkscape:current-layer="layer6" />
  <g
     inkscape:groupmode="layer"
     id="layer2"
     inkscape:label="image" />
  <g
     inkscape:groupmode="layer"
     id="layer4"
     inkscape:label="red" />
  <g
     inkscape:groupmode="layer"
     id="layer5"
     inkscape:label="legs" />
  <g
     inkscape:groupmode="layer"
     id="layer3"
     inkscape:label="white" />
  <g
     inkscape:groupmode="layer"
     id="layer1"
     inkscape:label="nose" />
  <g
     inkscape:groupmode="layer"
     id="layer6"
     inkscape:label="eyes">
    <g
       id="g6535"
       transform="translate(-6.6264277,50.360851)">
      <path
         sodipodi:nodetypes="ccccscssscsssscccssssssc"
         inkscape:connector-curvature="0"
         id="path3879"
         d="m 393.2679,867.08991 c 0,0 -133.13651,12.38687 -169.4705,-6.22183 -30.0123,-105.66021 -51.70589,-240.73753 -55.57733,-327.11976 -5.35119,-55.59196 21.92359,-151.84883 21.92359,-151.84883 0,0 -23.86938,-95.87979 -14.50251,-120.85427 8.55439,-22.80818 -4.17444,-24.79792 -4.17444,-24.79792 0,0 -7.10529,-38.0463 -15.16224,-47.71464 -8.05696,-9.66834 -20.94808,-53.17588 -14.50252,-58.01005 6.44556,-4.83417 56.39866,-1.61139 67.67839,11.27973 11.27974,12.89112 25.78225,17.72529 25.78225,17.72529 0,0 80.56951,4.83418 91.84924,1.61139 11.27974,-3.22278 69.28979,-43.50753 82.18091,-43.50753 12.89112,0 25.78224,8.05695 24.17085,19.33668 -1.61139,11.27973 -22.55946,95.07203 -33.83919,103.12898 -11.27974,8.05695 12.77645,86.38138 9.55367,112.16363 21.52325,122.45139 28.93258,194.86947 22.45803,287.09764 -0.77891,75.08669 -17.58546,130.59863 -41.78531,201.29336 0,0 29.28844,9.73312 40.56817,-9.60357 11.27973,-19.33668 31.35328,-266.05963 57.13552,-322.45829 25.78225,-56.39866 83.38442,-41.51908 98.99119,-101.38593 4.75784,-18.25087 -4.56989,81.41002 -2.31064,116.1217 2.56023,39.33593 -1.97944,133.73884 -18.38641,181.16766 -28.14933,81.37332 -120.42997,151.55809 -130.43355,159.43856 -10.74069,8.46115 -42.14717,3.158 -42.14717,3.158 z"
         style="fill:#bb702b;fill-opacity:1;stroke:#000000;stroke-width:7;stroke-linecap:butt;stroke-linejoin:miter;stroke-miterlimit:4;stroke-opacity:1;stroke-dasharray:none" />
      <path
         inkscape:connector-curvature="0"
         id="path4252"
         d="m 489.96054,502.10746 c 0,0 93.4443,21.98689 95.27654,47.63827 1.83225,25.65138 1.83225,23.81914 1.83225,23.81914"
         style="fill:none;stroke:#000000;stroke-width:1px;stroke-linecap:butt;stroke-linejoin:miter;stroke-opacity:1" />
      <path
         inkscape:connector-curvature="0"
         id="path4254"
         d="m 576.32642,534.73968 c -5.03709,-5.56591 -34.16313,-18.56528 -58.16353,-25.95921 l -22.02367,-6.78495 5.47184,-7.55366 c 6.66361,-9.19884 18.98988,-18.50242 43.14987,-32.5685 10.06524,-5.86004 22.54075,-14.89493 27.72337,-20.07755 l 9.42294,-9.42295 -0.84499,51.42302 c -0.46474,28.28265 -1.00597,52.10465 -1.20273,52.93777 -0.19676,0.83312 -1.78666,-0.0642 -3.5331,-1.99397 l 0,0 z"
         style="fill:#f6f5f5;fill-opacity:1;stroke:#000000;stroke-width:0;stroke-miterlimit:4;stroke-opacity:1;stroke-dasharray:none" />
      <path
         sodipodi:nodetypes="ccsscc"
         inkscape:connector-curvature="0"
         id="path3882"
         d="m 224.39583,665.86049 c 3.74428,50.36021 39.98123,188.98639 39.98123,188.98639 0,0 -34.99321,20.85872 -26.93626,30.52707 8.05695,9.66834 43.50754,12.89112 54.78727,6.44556 11.27973,-6.44556 3.81948,-35.53994 3.81948,-35.53994 0,0 -13.94354,-164.53523 -20.60164,-180.54649"
         style="fill:#010311;fill-opacity:1;stroke:#000000;stroke-width:1px;stroke-linecap:butt;stroke-linejoin:miter;stroke-opacity:1" />
      <path
         sodipodi:nodetypes="csccccc"
         inkscape:connector-curvature="0"
         id="path3884"
         d="m 311.77234,682.19857 c 8.05695,11.27973 4.46463,58.03595 6.07602,70.92707 1.61139,12.89112 6.56507,105.41857 6.56507,105.41857 -13.8608,16.71135 -17.63747,6.59529 -15.88522,27.62232 0,0 37.86474,27.34139 62.82914,-3.33971 -6.65951,-23.26967 0.70527,-8.87748 -19.47601,-23.29277 L 372.9238,660.50798"
         style="fill:#010311;fill-opacity:1;stroke:#000000;stroke-width:1px;stroke-linecap:butt;stroke-linejoin:miter;stroke-opacity:1" />
      <path
         sodipodi:nodetypes="cccccccc"
         inkscape:connector-curvature="0"
         id="path3088"
         d="m 203.65194,271.44123 c 43.81042,35.55047 38.77999,28.09415 113.06413,27.75914 31.13717,-26.8747 21.98344,-12.29298 42.92908,-41.57071 35.91572,34.05965 4.08454,84.03154 22.33377,123.53256 1.06903,61.26595 24.64377,156.48452 3.02857,180.99177 -87.57369,-81.31027 -97.90119,80.58338 -135.69024,61.64185 0,0 -53.62182,-102.71674 -55.28453,-132.47555 41.44655,-84.23312 -6.68499,-155.88588 9.61922,-219.87906 z"
         style="fill:#f9fcfc;fill-opacity:1;stroke:#000000;stroke-width:7.411201;stroke-linecap:butt;stroke-linejoin:miter;stroke-miterlimit:4;stroke-opacity:1;stroke-dasharray:none" />
      <path
         sodipodi:nodetypes="cccc"
         inkscape:connector-curvature="0"
         id="path3066"
         d="m 267.49039,317.44389 c 10.19454,-0.82622 20.54563,-2.57187 32.22781,-1.61139 6.84801,9.01743 -3.86265,30.65958 -16.1139,32.2278 -12.25125,1.56822 -21.47428,-20.12185 -16.11391,-30.61641 z"
         style="fill:#000000;fill-opacity:1;stroke:#000000;stroke-width:7;stroke-linecap:butt;stroke-linejoin:miter;stroke-miterlimit:4;stroke-opacity:1;stroke-dasharray:none" />
      <path
         sodipodi:nodetypes="csc"
         inkscape:connector-curvature="0"
         id="path4336"
         d="m 381.99221,227.53907 c 0,0 -9.98279,-71.51557 -3.04793,-77.50182 21.5799,-18.62804 36.32709,-13.58295 36.32709,-13.58295"
         style="fill:#9f3e31;fill-opacity:1;stroke:#000000;stroke-width:0;stroke-linecap:butt;stroke-linejoin:miter;stroke-miterlimit:4;stroke-opacity:1;stroke-dasharray:none" />
      <path
         sodipodi:nodetypes="cc"
         inkscape:connector-curvature="0"
         id="path4344"
         d="m 288.07693,367.11307 c -11.73804,-3.96549 -8.87976,-3.28405 -16.62015,-5.87913"
         style="fill:none;stroke:#000000;stroke-width:5.27876282;stroke-linecap:butt;stroke-linejoin:miter;stroke-miterlimit:4;stroke-opacity:1;stroke-dasharray:none" />
      <path
         transform="matrix(0.60144039,0,0,0.73746915,-181.51195,36.248466)"
         d="m 714.57407,294.14807 c 0,8.60131 -6.56258,15.57405 -14.65793,15.57405 -8.09535,0 -14.65793,-6.97274 -14.65793,-15.57405 0,-8.60131 6.56258,-15.57405 14.65793,-15.57405 8.09535,0 14.65793,6.97274 14.65793,15.57405 z"
         sodipodi:ry="15.57405"
         sodipodi:rx="14.657929"
         sodipodi:cy="294.14807"
         sodipodi:cx="699.91614"
         id="path4352"
         style="fill:#010607;fill-opacity:1;stroke:#000000;stroke-width:7;stroke-miterlimit:4;stroke-opacity:1;stroke-dasharray:none"
         sodipodi:type="arc" />
      <path
         transform="matrix(0.6480344,0,0,0.54811658,-211.5627,91.150593)"
         d="m 718.23857,287.73523 c 0,7.08343 -3.28129,12.82569 -7.32896,12.82569 -4.04768,0 -7.32897,-5.74226 -7.32897,-12.82569 0,-7.08343 3.28129,-12.82569 7.32897,-12.82569 4.04767,0 7.32896,5.74226 7.32896,12.82569 z"
         sodipodi:ry="12.825688"
         sodipodi:rx="7.3289647"
         sodipodi:cy="287.73523"
         sodipodi:cx="710.90961"
         id="path4354"
         style="fill:#f9fafd;fill-opacity:1;stroke:#000000;stroke-width:0;stroke-miterlimit:4;stroke-opacity:1;stroke-dasharray:none"
         sodipodi:type="arc" />
      <path
         d="m 714.57407,294.14807 c 0,8.60131 -6.56258,15.57405 -14.65793,15.57405 -8.09535,0 -14.65793,-6.97274 -14.65793,-15.57405 0,-8.60131 6.56258,-15.57405 14.65793,-15.57405 8.09535,0 14.65793,6.97274 14.65793,15.57405 z"
         sodipodi:ry="15.57405"
         sodipodi:rx="14.657929"
         sodipodi:cy="294.14807"
         sodipodi:cx="699.91614"
         id="path4352-9"
         style="fill:#010607;fill-opacity:1;stroke:#000000;stroke-width:7;stroke-miterlimit:4;stroke-opacity:1;stroke-dasharray:none"
         sodipodi:type="arc"
         transform="matrix(-0.60144039,0,0,0.73746915,752.8443,38.302408)" />
      <path
         transform="matrix(-0.6480344,0,0,0.54811658,798.79285,90.479194)"
         d="m 718.23857,287.73523 c 0,7.08343 -3.28129,12.82569 -7.32896,12.82569 -4.04768,0 -7.32897,-5.74226 -7.32897,-12.82569 0,-7.08343 3.28129,-12.82569 7.32897,-12.82569 4.04767,0 7.32896,5.74226 7.32896,12.82569 z"
         sodipodi:ry="12.825688"
         sodipodi:rx="7.3289647"
         sodipodi:cy="287.73523"
         sodipodi:cx="710.90961"
         id="path4354-7"
         style="fill:#f9fafd;fill-opacity:1;stroke:#000000;stroke-width:0;stroke-miterlimit:4;stroke-opacity:1;stroke-dasharray:none"
         sodipodi:type="arc" />
      <path
         inkscape:connector-curvature="0"
         id="path5379"
         d="m 163.55244,151.92146 c 0,0 46.10203,6.586 45.00437,27.44168 -1.09767,20.85568 -6.58601,35.12536 -6.58601,35.12536"
         style="fill:#9f3e31;fill-opacity:1;stroke:#000000;stroke-width:0;stroke-linecap:butt;stroke-linejoin:miter;stroke-miterlimit:4;stroke-opacity:1;stroke-dasharray:none" />
    </g>
    <g
       transform="matrix(0.18677431,0,0,0.18677431,-25.899064,-48.930856)"
       style="stroke:#000000;stroke-width:3.97680163;stroke-miterlimit:4;stroke-opacity:1;stroke-dasharray:none"
       id="g3825">
      <g
         id="g3156">
        <path
           inkscape:connector-curvature="0"
           id="path3001"
           d="m 1219.6936,460.43219 c 0,0 -56.7617,22.16411 -60.5458,27.0294 -3.7842,4.86529 -24.8671,23.24529 -22.1642,25.94823 2.703,2.70294 56.7618,3.78411 87.0347,2.70294 30.2729,-1.08118 36.2194,14.59587 37.3006,18.37999 1.0812,3.78412 6.4871,21.08293 6.4871,21.08293 l 5.4058,22.16411 7.5683,9.73059 -12.9741,8.10882 c 0,0 -23.7859,10.81176 -44.3283,31.89469 -20.5423,21.08293 -65.4111,75.68233 -72.4388,91.89997 -53.8805,97.18296 -82.1143,208.84417 -114.6045,305.43224 0,0 -0.5406,9.7306 -0.5406,12.9741 0,3.2435 -31.3542,140.5529 -28.6512,165.9605 153.5071,-401.25022 191.23,56.3312 200.0175,41.0847 1.6218,-3.7841 54.0588,42.1659 67.5735,61.6271 13.5147,19.4612 41.6253,54.0588 41.6253,54.0588 0,0 14.0553,32.9759 19.4611,35.6788 5.4059,2.7029 20.0018,63.7894 20.0018,63.7894 l 6.4871,7.0276 c 0,0 0.5405,31.8947 0,35.1383 -0.5406,3.2435 -1.0812,8.6494 -1.0812,8.6494 0,0 8.1088,-9.19 10.8117,-18.38 2.703,-9.19 3.7842,-38.3818 3.7842,-38.3818 l -12.9742,-73.52 25.9483,27.57 c 0,0 8.1088,22.1641 10.8117,22.1641 2.703,0 15.1365,23.7859 19.4612,24.8671 4.3247,1.0812 28.1106,49.1935 28.1106,49.1935 l 24.867,0 -1.0811,0 c 0,0 18.3799,21.0829 20.5423,35.6788 2.1623,14.5959 5.4059,9.19 5.4059,9.19 0,0 5.9464,-21.6235 2.1623,-27.57 -3.7841,-5.9464 -24.3264,-37.3006 -24.3264,-37.3006 l -49.7341,-75.6823 19.4611,16.2177 c 0,0 11.893,10.8117 13.5147,10.2711 1.6218,-0.5406 12.4336,-8.1088 12.4336,-8.1088 0,0 18.9205,16.2177 18.9205,27.57 0,11.3524 5.4059,9.19 5.4059,9.19 l 6.4871,-10.2712 c 0,0 1.0812,-21.0829 -6.4871,-29.7323 -7.5682,-8.6494 -43.247,-30.2729 -43.247,-30.2729 l -36.76,-21.083 -11.3524,-9.19 -18.9205,-8.6494 0,-5.4059 -14.5959,-4.3247 2.7029,-2.7029 -9.7306,-5.9465 -10.8117,-9.19 -11.3524,-8.1088 3.7842,-2.7029 -16.2177,-7.5683 c 0,0 -61.0864,-54.0588 -63.2488,-59.4646 -2.1623,-5.4059 -30.2729,-36.7601 -30.2729,-36.7601 0,0 55.14,7.5683 64.33,0 9.19,-7.5682 9.19,-7.5682 9.19,-7.5682 l 136.7687,118.9294 11.3524,12.9741 2.1623,5.4059 -7.5682,7.5682 2.7029,3.7841 -27.0294,11.3524 65.4112,5.9465 22.1641,27.0294 2.1623,25.4076 c 0,0 8.1089,3.7841 13.5147,4.3247 5.4059,0.5406 -3.7841,32.9759 -3.7841,32.9759 l 11.3524,-8.6494 c 0,0 11.8929,-14.5959 9.7306,-27.57 -2.1624,-12.9741 -2.1624,-13.5147 -2.1624,-13.5147 l -17.2988,-37.3006 3.7841,-0.5406 28.6512,27.0294 c 0,0 12.4335,28.1106 14.5959,24.3265 2.1623,-3.7841 18.9205,17.2988 18.9205,17.2988 l 18.38,44.8688 22.7047,2.7029 10.8118,32.9759 4.3247,10.8118 c 0,0 9.7306,-49.7341 2.7029,-59.4647 -7.0276,-9.7306 -44.8688,-56.2212 -44.8688,-56.2212 l -4.8653,-15.677 -37.8411,-39.4629 3.2435,-4.8653 -36.2194,-15.1365 -14.0553,-6.4871 -18.9206,-18.9205 -148.1211,-130.2818 19.4612,9.7306 c 0,0 127.1602,-77.5081 149.8649,-102.9157 22.7047,-25.4077 101.1131,-114.08724 107.6001,-134.089 6.4871,-20.00176 34.2514,-85.75126 38.0852,-119.98112 2.0449,-43.33937 3.4293,-85.49351 3.5864,-128.88081 0,0 -13.2413,-78.99529 -15.9442,-81.69823 -2.7029,-2.70294 -14.5202,-38.97491 -14.5202,-38.97491 l -5.0924,-11.35235 -26.3142,-39.2652 -6.4114,-11.69523 -2.7555,-3.5401 -23.2159,-35.23708 10.8118,-2.16236 -14.0553,-15.13646 11.3524,-1.08118 -17.2989,-12.43352 8.1089,0.54059 -9.19,-7.02765 11.3523,2.16235 -32.9759,-19.46117 5.9465,-1.62176 -25.9482,-16.21764 -52.437,-25.94823 -32.4353,-6.48705 12.9741,-5.40588 -31.3541,2.70294 15.677,-4.8653 -24.3264,1.08118 11.8929,-4.86529 -43.247,8.10882 -16.2177,4.3247 13.5147,-8.10882 -35.1382,9.19 9.7306,-9.73059 -28.6512,12.43353 5.9465,-9.73059 -21.0829,11.89294 5.9464,-8.64941 -12.9741,8.64941 8.6494,-12.97411 -24.867,20.00176 8.1088,-16.75823 -11.8929,10.81176 -2.1624,-9.19 -7.0276,8.10882 -2.703,-2.70294 -9.19,10.81176 0.5406,-8.10882 -10.8118,20.00176 -2.7029,-10.27117 -8.6494,17.8394 -3.2435,-11.89294 -4.3247,22.7047 -2.1313,-7.92946 -3.2746,11.17299 -2.1863,-0.079 2.1863,16.29661 -5.7121,-0.61242 z"
           style="fill:none;stroke:#000000;stroke-width:3.97680163;stroke-linecap:butt;stroke-linejoin:miter;stroke-miterlimit:4;stroke-opacity:1;stroke-dasharray:none"
           sodipodi:nodetypes="cssssccccsccsccscsccscscccsscccscscccscsccsccccccccccccscsccccccccccsccsccccscccccscccccccccssccsccccccccccccccccccccccccccccccccccccccccccccccccccccc" />
        <path
           inkscape:connector-curvature="0"
           id="path3028"
           d="m 1220.6398,460.35792 4.2851,-0.61216 c 0,0 0.6121,14.69176 6.7337,13.46744 6.1215,-1.22431 17.1403,-7.95803 20.2011,-5.5094 3.0608,2.44862 -10.0752,5.5367 -10.0752,5.5367 0,0 -6.453,-0.0273 -4.0044,3.03348 2.4487,3.06079 9.5567,8.70665 9.5567,8.70665 0,0 37.5794,-12.37958 43.7009,-9.93096 6.1216,2.44863 7.9581,4.89725 7.9581,4.89725 l -5.5094,3.67294 c 0,0 34.8929,2.44863 41.0144,5.50941 6.1216,3.06078 41.6267,3.67293 45.9118,-1.22432 4.285,-4.89725 22.0376,-25.71056 22.0376,-25.71056 0,0 3.6729,-22.03763 -1.8365,-22.64978 -5.5094,-0.61216 -7.3459,-4.89725 -7.3459,-4.89725 0,0 18.9769,-1.22432 23.262,0.61215 4.2851,1.83647 11.0188,15.30391 14.6917,17.14038 3.673,1.83647 28.1592,11.63097 28.1592,11.63097 l -6.1215,7.34587 c 0,0 -3.673,6.12157 -8.5702,10.40666 -4.8973,4.2851 -15.9161,4.2851 -15.9161,4.2851 l -28.7713,12.24312 c 0,0 -20.8134,3.67294 -23.8741,2.44863 -3.0608,-1.22432 -7.9581,6.73372 -7.9581,6.73372 l -5.5094,-1.22432 1.2243,-6.73372 c 0,0 -3.6729,7.34588 -6.1215,3.06079 -2.4487,-4.2851 -13.4675,-5.50941 -13.4675,-5.50941 l -9.1823,4.89725 -5.5094,-1.83647 c 0,0 -23.262,-9.18234 -32.4443,-10.40666 -9.1823,-1.22431 -56.9305,6.73372 -56.9305,6.73372 l 32.4442,7.95803 c 0,0 46.5239,4.2851 46.5239,6.73372 0,2.44863 5.5094,9.18235 5.5094,9.18235 l -3.0608,3.67294 -28.7713,-9.7945 -68.5615,1.83646"
           style="fill:none;stroke:#000000;stroke-width:3.97680163;stroke-linecap:butt;stroke-linejoin:miter;stroke-miterlimit:4;stroke-opacity:1;stroke-dasharray:none"
           sodipodi:nodetypes="ccsscscsccsscscssccsccscccscccsccscccc" />
        <path
           inkscape:connector-curvature="0"
           id="path3030"
           d="m 1201.7403,493.59769 c 0.4209,-0.16982 1.1096,-0.16982 1.5304,0 0.4209,0.16982 0.077,0.30876 -0.7652,0.30876 -0.8417,0 -1.186,-0.13894 -0.7652,-0.30876 z"
           style="fill:#a0a0a0;stroke:#000000;stroke-width:3.97680163;stroke-miterlimit:4;stroke-opacity:1;stroke-dasharray:none" />
        <path
           inkscape:connector-curvature="0"
           id="path3032"
           d="m 1206.4111,482.70753 c -0.501,-1.30553 0.2549,-2.17186 1.895,-2.17186 1.7628,0 2.3096,1.26124 0.9869,2.27612 -1.3174,1.01077 -2.47,0.96908 -2.8819,-0.10426 z"
           style="fill:#ffff00;stroke:#000000;stroke-width:3.97680163;stroke-miterlimit:4;stroke-opacity:1;stroke-dasharray:none" />
        <path
           inkscape:connector-curvature="0"
           id="path3034"
           d="m 1217.8547,483.34487 c -1.2355,-1.48861 0.3644,-1.72042 2.8435,-0.41201 l 2.3146,1.22164 -2.2207,0.0271 c -1.2213,0.0149 -2.5432,-0.36163 -2.9374,-0.83669 z"
           style="fill:#ffff00;stroke:#000000;stroke-width:3.97680163;stroke-miterlimit:4;stroke-opacity:1;stroke-dasharray:none" />
        <path
           sodipodi:nodetypes="ccsssssssssscssscsssscssssssssssssscsssssccsccsssscsssssssssccccsssscsccccsssss"
           inkscape:connector-curvature="0"
           id="path3036"
           d="m 1306.8782,518.08614 -13.4675,-4.59333 -38.2597,0.97963 c -43.6686,1.11811 -80.5743,1.23665 -97.945,0.31459 -11.1819,-0.59355 -18.7677,-1.39387 -19.423,-2.04917 -0.6581,-0.65808 3.9784,-6.19779 13.0272,-15.5648 9.4116,-9.74267 9.8133,-10.07217 16.1349,-13.23578 14.3803,-7.19652 52.5362,-22.99061 55.5415,-22.99061 1.7383,0 1.8034,0.11339 2.4602,4.28468 0.8754,5.55887 2.9883,8.5706 6.013,8.5706 1.1381,0 5.383,-1.23961 9.4333,-2.7547 8.5192,-3.18681 10.2989,-3.36421 12.307,-1.22673 0.7895,0.84039 1.3196,1.62379 1.178,1.74089 -0.1417,0.1171 -3.1742,0.52123 -6.739,0.89807 -7.2464,0.76602 -9.5854,1.4498 -10.1699,2.97307 -0.4498,1.17217 2.4952,4.00579 6.2149,5.97992 l 2.2288,1.18288 9.9193,-2.03441 c 14.8314,-3.04187 26.5777,-4.89433 31.0387,-4.89502 3.904,-6e-4 7.288,1.07091 10.0405,3.17923 1.104,0.84563 1.0091,0.99889 -1.8365,2.96534 l -3.0006,2.07362 2.4486,0.43887 c 1.3467,0.24137 7.1506,0.87146 12.8976,1.4002 13.3184,1.22535 21.5632,2.45305 26.5865,3.95888 10.3948,3.11605 34.6201,3.40861 44.2148,0.53396 2.1775,-0.65238 3.9772,-2.47099 13.9975,-14.14419 13.1014,-15.26259 12.4475,-13.85963 12.4718,-26.75613 0.015,-8.01648 -0.6327,-9.49925 -4.8404,-11.07821 -1.6631,-0.6241 -3.4438,-1.55472 -3.9571,-2.06805 -0.8364,-0.83634 0.068,-0.93333 8.7059,-0.93333 6.931,0 10.2224,0.24363 11.7147,0.86715 1.4839,0.62004 3.6153,2.91984 7.4792,8.07021 2.9721,3.96168 6.0926,7.70403 6.9343,8.31633 0.8417,0.6123 7.3152,3.49033 14.3856,6.39563 7.0705,2.90529 12.9568,5.37074 13.0809,5.47877 0.1241,0.10803 -0.9956,1.65591 -2.4881,3.43973 -1.4925,1.78383 -3.7428,4.6765 -5.0006,6.42816 -5.1903,7.22785 -9.6584,9.8232 -18.7535,10.89304 -2.2254,0.26176 -8.2443,2.44913 -17.7525,6.45156 -13.9595,5.8761 -14.6397,6.09236 -22.9559,7.29844 -4.7136,0.6836 -10.5297,1.2444 -12.9246,1.24623 l -4.3543,0.003 -2.863,3.06078 c -2.7689,2.96017 -4.5508,3.68913 -6.2998,2.57722 -0.7429,-1.50961 0.6235,-9.591 -1.5186,-6.02804 -0.3537,0.62719 -1.1904,1.68764 -1.8593,2.35656 -1.2136,1.21352 -1.2207,1.21197 -3.1939,-0.70053 -2.2049,-2.13716 -6.539,-3.98662 -10.8611,-4.63476 -2.569,-0.38524 -3.3249,-0.18428 -7.4628,1.98398 l -4.6043,2.41265 -11.3746,-4.19372 c -23.3895,-8.62353 -26.5251,-9.03794 -48.1451,-6.36293 -15.9038,1.96774 -34.651,4.86764 -35.2334,5.45004 -0.9191,0.91913 1.267,1.62731 16.3265,5.28874 13.1794,3.20433 17.7399,4.02544 29.289,5.27342 15.0501,1.62629 29.4,3.69115 31.6823,4.5589 0.8078,0.3071 1.4686,0.9507 1.4686,1.43023 0,0.47952 0.9642,2.30458 2.1426,4.05568 1.1784,1.7511 2.1425,3.51424 2.1425,3.9181 0,0.92714 -1.265,2.21854 -2.1119,2.15597 -0.3535,-0.0261 -6.7031,-2.11449 -14.1102,-4.64082 l 0,2.5e-4 z m -103.6075,-24.48845 c -0.4208,-0.16982 -1.1095,-0.16982 -1.5304,0 -0.4208,0.16982 -0.077,0.30876 0.7652,0.30876 0.8417,0 1.1861,-0.13894 0.7652,-0.30876 z m 18.2117,-10.61339 c -2.5626,-1.40293 -4.2851,-1.54648 -4.2851,-0.35709 0,1.11813 0.9536,1.4794 3.979,1.50741 l 2.4486,0.0227 -2.1425,-1.17299 z m -11.6532,-0.27927 c 1.0419,-1.25546 0.2624,-2.16936 -1.8504,-2.16936 -1.5123,0 -1.8003,0.24489 -1.8003,1.53039 0,1.2033 0.311,1.53039 1.4554,1.53039 0.8005,0 1.7883,-0.40113 2.1953,-0.89142 z"
           style="fill:#ffff00;stroke:#000000;stroke-width:3.97680163;stroke-miterlimit:4;stroke-opacity:1;stroke-dasharray:none" />
        <path
           inkscape:connector-curvature="0"
           id="path3806"
           d="m 1365.5014,506.18948 c -0.3293,-0.0513 -0.5269,-0.1191 -0.9273,-0.31829 -0.2103,-0.10466 -0.271,-0.17385 -0.3236,-0.36917 -0.1313,-0.48784 -0.1749,-1.33863 -0.1763,-3.44405 0,-2.63613 -0.07,-3.16084 -0.415,-3.21 -0.2365,-0.0337 -0.4212,0.14856 -0.9308,0.91869 -0.2701,0.408 -0.6432,0.93323 -0.8294,1.16717 -0.5358,0.67355 -1.6381,1.76705 -1.9005,1.88537 -0.2235,0.10078 -0.2522,0.10104 -0.5049,0.005 -0.1663,-0.0635 -0.5067,-0.32017 -0.8974,-0.67669 -1.8202,-1.66075 -2.117,-1.88926 -3.3826,-2.6038 -1.4107,-0.7965 -2.8681,-1.41485 -4.5728,-1.94011 -2.5023,-0.77105 -5.1303,-1.16713 -6.336,-0.95493 -1.3066,0.22996 -2.0502,0.56316 -6.7319,3.0166 -1.4913,0.78152 -2.7442,1.42094 -2.7842,1.42094 -0.04,0 -3.3316,-1.20045 -7.3146,-2.66767 -10.7778,-3.97019 -14.1516,-5.16469 -17.9364,-6.35052 l -0.243,-0.0761 -0.016,-3.0054 -0.016,-3.0054 1.1398,0.10908 c 1.913,0.18306 5.5884,0.58607 7.6721,0.84124 6.7016,0.82071 11.1404,1.60915 14.9783,2.66054 1.8645,0.51077 2.3831,0.6375 3.737,0.91311 3.8046,0.77452 8.7355,1.31207 14.6745,1.59976 2.2137,0.10723 10.2262,0.10718 12.2744,-6e-5 5.8812,-0.308 10.0787,-0.83373 13.2769,-1.66288 0.8752,-0.2269 1.4686,-0.45587 1.9921,-0.76868 1.7056,-1.01916 4.3922,-3.8739 12.2571,-13.02387 l 2.4306,-2.82771 0.015,12.2751 c 0.01,6.75131 0.01,12.28221 -6e-4,12.29089 -0.081,0.0807 -5.8853,0.85899 -8.5568,1.14733 -4.082,0.44058 -6.3316,0.57634 -9.5779,0.57799 l -2.1389,0.001 -1.7781,1.89309 c -1.8042,1.92074 -2.6561,2.73798 -3.4234,3.28408 -1.0011,0.71246 -1.9429,1.02205 -2.7344,0.8988 l 2e-4,-3e-5 z"
           style="fill:#ffff00;stroke:#000000;stroke-width:3.97680163;stroke-miterlimit:4;stroke-opacity:1;stroke-dasharray:none" />
        <path
           inkscape:connector-curvature="0"
           id="path3816"
           d="m 1365.5014,506.18948 c -0.6022,-0.0938 -1.1599,-0.37745 -1.2435,-0.63247 -0.1283,-0.39111 -0.1824,-1.41205 -0.1838,-3.46866 0,-2.65354 -0.075,-3.19721 -0.4337,-3.23896 -0.2151,-0.025 -0.4526,0.22212 -0.9798,1.01939 -0.2326,0.35183 -0.5754,0.83111 -0.7616,1.06505 -0.5137,0.64538 -1.5933,1.72708 -1.8615,1.8652 -0.4331,0.22303 -0.6825,0.0788 -2.0101,-1.16226 -1.2798,-1.19646 -2.1836,-1.81213 -3.8889,-2.6489 -2.0175,-0.99005 -4.206,-1.70297 -6.5017,-2.11798 -2.2257,-0.40236 -3.2241,-0.37683 -4.5877,0.1173 -0.8418,0.30504 -2.1313,0.93365 -5.1713,2.5208 -1.6621,0.86776 -3.0541,1.57775 -3.0932,1.57775 -0.039,0 -3.2201,-1.15938 -7.0688,-2.5764 -10.0623,-3.70481 -13.9352,-5.08465 -17.0843,-6.08682 -0.7019,-0.22334 -1.2969,-0.42474 -1.3222,-0.44754 -0.025,-0.0228 -0.039,-1.38043 -0.03,-3.01693 l 0.016,-2.97546 1.1241,0.10786 c 3.4928,0.33512 8.083,0.86825 11.1806,1.29861 5.1133,0.71038 8.2586,1.32418 11.9383,2.32969 4.6782,1.27839 10.1632,2.00703 17.9576,2.38559 2.1332,0.1036 10.2638,0.10371 12.244,1.8e-4 4.4726,-0.23387 8.384,-0.647 11.0787,-1.17011 1.2999,-0.25236 2.9585,-0.68409 3.4792,-0.90568 1.8965,-0.80703 4.0422,-3.02097 12.9378,-13.34914 l 2.461,-2.85726 0.015,12.2745 c 0.01,6.75098 0.01,12.28164 -6e-4,12.29037 -0.08,0.0803 -5.8696,0.85795 -8.5218,1.14472 -4.151,0.44882 -6.294,0.5782 -9.6113,0.58027 l -2.1374,10e-4 -1.771,1.88544 c -1.7952,1.91114 -2.664,2.74411 -3.4335,3.29173 -1.0011,0.71247 -1.9429,1.02205 -2.7344,0.8988 l 10e-5,-2e-5 z"
           style="fill:#ffff00;stroke:#000000;stroke-width:3.97680163;stroke-miterlimit:4;stroke-opacity:1;stroke-dasharray:none" />
        <path
           inkscape:connector-curvature="0"
           id="path3818"
           d="m 1365.5622,506.20995 c -0.6123,-0.0872 -1.2184,-0.3907 -1.3045,-0.65334 -0.1269,-0.38718 -0.1822,-1.40526 -0.1851,-3.4075 0,-2.13252 -0.049,-2.81479 -0.2117,-3.12908 -0.2046,-0.39569 -0.5431,-0.14602 -1.2475,0.91999 -0.2066,0.31266 -0.528,0.75987 -0.7142,0.99381 -0.5366,0.67417 -1.6384,1.76711 -1.9007,1.88537 -0.4272,0.19266 -0.5503,0.11316 -2.3626,-1.52599 -1.0559,-0.95501 -1.9436,-1.53883 -3.4974,-2.30026 -2.0091,-0.9846 -4.2059,-1.69876 -6.5321,-2.12361 -2.2939,-0.41894 -3.3474,-0.36659 -4.8803,0.2425 -0.6918,0.27488 -2.6427,1.24694 -5.6025,2.79153 -1.2461,0.6503 -2.2978,1.18237 -2.3369,1.18237 -0.039,0 -2.7421,-0.98206 -6.0065,-2.18237 -11.1755,-4.10923 -12.9728,-4.75455 -16.6904,-5.99253 l -2.7951,-0.9308 -0.016,-3.01087 -0.016,-3.01088 0.1676,0.0286 c 0.092,0.0157 0.6189,0.071 1.1703,0.12283 4.6531,0.43721 10.8006,1.19999 14.4566,1.79377 3.2515,0.5281 5.3793,0.97891 8.1476,1.72622 0.9191,0.24811 2.0402,0.5327 2.4914,0.63243 4.2888,0.94808 9.1936,1.51718 15.8594,1.84016 2.0459,0.0991 10.1107,0.0996 12.092,6.8e-4 5.5039,-0.27473 9.8514,-0.80034 12.914,-1.56127 1.711,-0.42513 2.2846,-0.6876 3.3831,-1.54806 1.0841,-0.84917 3.5287,-3.41023 6.5832,-6.89673 1.7449,-1.99161 6.8946,-7.94476 7.1201,-8.23076 0.058,-0.0739 0.074,2.52874 0.076,12.21805 l 0,12.31197 -0.2279,0.0383 c -1.6869,0.28347 -6.1721,0.87353 -8.5829,1.12915 -3.9948,0.42357 -6.09,0.54714 -9.3048,0.54876 l -2.165,10e-4 -1.7462,1.85678 c -2.3387,2.48674 -3.2483,3.29829 -4.2877,3.82517 -0.6268,0.31773 -1.3659,0.48336 -1.8497,0.41449 l 0,0 z"
           style="fill:#ffff00;stroke:#000000;stroke-width:3.97680163;stroke-miterlimit:4;stroke-opacity:1;stroke-dasharray:none" />
        <path
           inkscape:connector-curvature="0"
           id="path3820"
           d="m 1365.4177,506.18394 c -0.1798,-0.0308 -0.4991,-0.13824 -0.7096,-0.23871 -0.3084,-0.14717 -0.3953,-0.22088 -0.4473,-0.37915 -0.1291,-0.39387 -0.1853,-1.39308 -0.1868,-3.32582 0,-2.74657 -0.091,-3.39696 -0.4668,-3.40186 -0.1452,-0.002 -0.465,0.3371 -0.8249,0.87436 -0.6225,0.92939 -1.0761,1.49323 -1.8058,2.2449 -0.6529,0.67259 -1.0181,0.951 -1.2477,0.951 -0.266,0 -0.6303,-0.27682 -1.9525,-1.48378 -1.3603,-1.24169 -2.7264,-2.0817 -4.853,-2.98405 -2.5596,-1.08605 -6.3123,-1.93682 -8.0817,-1.83216 -1.3947,0.0825 -2.1278,0.3934 -7.4541,3.16119 -1.3928,0.72373 -2.5636,1.31588 -2.6018,1.31588 -0.038,0 -2.385,-0.85043 -5.2151,-1.88985 -12.1635,-4.46728 -13.9662,-5.11472 -17.6631,-6.34378 l -2.6128,-0.86867 -0.016,-3.01528 -0.016,-3.01528 0.1372,0.0292 c 0.076,0.0161 0.4791,0.0592 0.8969,0.0959 2.5457,0.22351 8.5322,0.91928 11.5452,1.34184 4.754,0.66673 7.7101,1.23633 11.1502,2.14851 2.399,0.63612 2.5168,0.66435 4.0408,0.96785 3.8773,0.77218 8.7799,1.29729 14.5834,1.562 2.0062,0.0915 10.103,0.0919 12.0009,5.5e-4 5.4407,-0.26184 9.9015,-0.80401 13.0342,-1.58419 1.9498,-0.48559 2.5982,-0.84655 4.2228,-2.35076 1.7662,-1.63542 4.6699,-4.87812 12.0009,-13.40197 l 0.8203,-0.95379 0.015,12.28167 c 0.01,6.75492 0.01,12.2904 0,12.30108 -0.082,0.0824 -6.1015,0.88771 -8.7613,1.17216 -3.8982,0.41689 -6.1234,0.54791 -9.3332,0.54953 l -2.163,10e-4 -1.7481,1.85666 c -1.8074,1.9197 -2.7261,2.8007 -3.4632,3.32106 -1.0394,0.73377 -1.991,1.03494 -2.8208,0.8927 l 0,-2e-5 z"
           style="fill:#ffff00;stroke:#000000;stroke-width:3.97680163;stroke-miterlimit:4;stroke-opacity:1;stroke-dasharray:none" />
        <path
           inkscape:connector-curvature="0"
           id="path3822"
           d="m 1365.3805,506.17928 c -0.1667,-0.0318 -0.4724,-0.13858 -0.6792,-0.23728 -0.3018,-0.14403 -0.3887,-0.21824 -0.4405,-0.37592 -0.1279,-0.3902 -0.1853,-1.38633 -0.1879,-3.26506 0,-2.60485 -0.073,-3.23725 -0.377,-3.42587 -0.1518,-0.0943 -0.3794,0.0954 -0.7625,0.63561 -0.9442,1.33125 -1.25,1.7149 -1.9187,2.4067 -0.6822,0.70571 -1.0525,0.9912 -1.2859,0.9912 -0.2636,0 -0.6115,-0.26177 -1.8837,-1.41738 -1.2677,-1.15155 -2.076,-1.68675 -3.8281,-2.5347 -1.7894,-0.86604 -3.5978,-1.4842 -5.5729,-1.90506 -1.6071,-0.34242 -2.2379,-0.42489 -3.2379,-0.42332 -1.6552,0.003 -2.1332,0.19394 -7.6963,3.08085 -1.4591,0.75718 -2.6851,1.37669 -2.7245,1.37669 -0.039,0 -2.8376,-1.0146 -6.218,-2.25466 -11.7464,-4.30895 -12.4612,-4.56542 -16.4168,-5.88991 l -2.8559,-0.95627 -0.016,-3.01966 -0.016,-3.01966 0.1676,0.0316 c 0.092,0.0174 0.3454,0.0473 0.5627,0.0664 2.5703,0.22623 8.5008,0.91213 11.6059,1.34229 4.9844,0.69051 7.6865,1.21166 11.6363,2.24424 2.8533,0.74593 4.2194,1.03147 6.8056,1.42257 2.2404,0.33879 5.1729,0.6477 7.8386,0.82569 0.7686,0.0513 1.835,0.12308 2.3698,0.15946 1.4458,0.0984 11.2015,0.1423 13.1543,0.0592 4.0934,-0.17412 8.2158,-0.59217 11.1817,-1.13395 1.2386,-0.22626 3.1061,-0.70305 3.665,-0.93573 2.0049,-0.83464 4.0677,-2.99431 14.9896,-15.69382 l 0.4557,-0.5299 0.015,12.2838 c 0.01,6.75609 0.01,12.29294 0,12.3041 -0.084,0.0838 -5.6403,0.83089 -8.49,1.14144 -4.0544,0.44185 -6.3088,0.57837 -9.5714,0.57962 l -2.1916,8.4e-4 -1.7422,1.84979 c -2.4116,2.56036 -3.2954,3.33995 -4.3868,3.86949 -0.4692,0.22767 -1.1745,0.42192 -1.4887,0.41004 -0.084,-0.003 -0.2884,-0.0318 -0.4551,-0.0636 l 0,1e-5 z"
           style="fill:#ffff00;stroke:#000000;stroke-width:3.97680163;stroke-miterlimit:4;stroke-opacity:1;stroke-dasharray:none" />
        <path
           inkscape:connector-curvature="0"
           id="path3824"
           d="m 1365.3805,506.17928 c -0.1667,-0.0318 -0.4724,-0.13858 -0.6792,-0.23728 -0.3086,-0.14728 -0.3883,-0.21663 -0.4445,-0.38682 -0.1293,-0.39178 -0.1812,-1.28268 -0.1843,-3.16301 0,-2.16816 -0.064,-3.05182 -0.2282,-3.33275 -0.2199,-0.37657 -0.4262,-0.25261 -1.0288,0.61815 -0.7474,1.08008 -1.1309,1.55474 -1.8552,2.29613 -0.7331,0.75044 -1.0699,0.98107 -1.3353,0.91446 -0.2341,-0.0588 -0.6519,-0.36771 -1.2937,-0.95667 -1.8383,-1.68682 -3.0525,-2.46934 -5.3527,-3.44934 -2.8188,-1.20104 -6.6228,-2.03252 -8.4093,-1.83816 -1.2431,0.13523 -2.0449,0.47904 -6.5793,2.82126 -1.7254,0.89127 -3.169,1.62049 -3.2079,1.62049 -0.039,0 -2.7208,-0.97132 -5.9598,-2.1585 -11.9861,-4.39314 -13.0955,-4.79087 -16.9452,-6.07475 l -2.5824,-0.86127 -0.016,-3.01868 -0.016,-3.01867 0.2284,0.0324 c 0.1256,0.0178 0.9257,0.10108 1.7779,0.185 4.9466,0.48712 10.1296,1.13517 13.6112,1.70185 3.421,0.55683 5.0719,0.90118 8.1423,1.6984 3.1706,0.82323 4.379,1.07846 6.8791,1.45299 3.1263,0.46833 5.6098,0.70766 10.5906,1.0206 1.6994,0.10677 12.4813,0.10727 14.1581,6.5e-4 2.7146,-0.17262 4.8743,-0.3675 6.9271,-0.62507 3.0573,-0.38363 6.0307,-1.04607 7.079,-1.57709 1.7959,-0.90979 4.3746,-3.64625 14.1884,-15.05644 l 0.8507,-0.98907 0.015,12.28661 c 0.01,6.75764 0.01,12.29594 0,12.30733 -0.084,0.0842 -5.2994,0.78719 -8.2435,1.11121 -4.249,0.46762 -5.528,0.55142 -9.0366,0.59207 l -2.9905,0.0346 -1.1106,1.19187 c -1.6689,1.79085 -3.2333,3.33436 -3.8459,3.79442 -0.6763,0.50794 -1.5049,0.92651 -2.066,1.04357 -0.4775,0.0996 -0.5997,0.10195 -1.0323,0.0194 l 0,10e-6 z"
           style="fill:#ffff00;stroke:#000000;stroke-width:3.97680163;stroke-miterlimit:4;stroke-opacity:1;stroke-dasharray:none" />
        <path
           inkscape:connector-curvature="0"
           id="path3826"
           d="m 1365.471,506.35929 c -1.1864,-0.26724 -2.1646,-0.49285 -2.1738,-0.50136 -0.01,-0.009 0.1411,-0.88748 0.3342,-1.95329 l 0.3509,-1.93782 0.04,1.48872 c 0.039,1.43364 0.097,1.99474 0.2338,2.24971 0.1491,0.27872 0.9465,0.55044 1.6284,0.55491 1.1324,0.007 2.2715,-0.64308 3.8851,-2.21868 0.4428,-0.43239 0.8051,-0.7681 0.8051,-0.74603 0,0.0221 -0.2418,0.33373 -0.5374,0.69257 -0.5652,0.68611 -1.3086,1.68939 -1.8005,2.42977 -0.2438,0.36687 -0.3192,0.43944 -0.4509,0.43397 -0.087,-0.004 -1.1289,-0.22522 -2.3153,-0.49247 z"
           style="fill:#ffff00;stroke:#000000;stroke-width:3.97680163;stroke-miterlimit:4;stroke-opacity:1;stroke-dasharray:none" />
        <path
           inkscape:connector-curvature="0"
           id="path3828"
           d="m 1367.0509,506.67323 c -2.5444,-0.56202 -3.623,-0.81182 -3.6651,-0.84881 -0.027,-0.024 0.08,-0.78543 0.2383,-1.69211 0.1583,-0.90667 0.2986,-1.63776 0.3117,-1.62465 0.013,0.0131 0.045,0.45734 0.072,0.98717 0.044,0.87898 0.048,0.79308 0.055,-0.98113 0.01,-2.6379 -0.073,-3.46539 -0.3614,-3.61975 -0.1737,-0.093 -0.3893,0.0888 -0.809,0.6821 -0.8643,1.22189 -1.2547,1.70667 -1.9306,2.39765 -0.7339,0.75029 -1.0711,0.98101 -1.3362,0.91446 -0.2436,-0.0611 -0.6573,-0.37448 -1.5065,-1.14105 -1.5077,-1.361 -2.4874,-2.02588 -4.147,-2.81452 -3.1273,-1.48598 -7.2389,-2.4805 -9.4104,-2.27619 -1.2021,0.11311 -1.9615,0.43908 -6.6591,2.85828 -1.6778,0.86408 -3.0824,1.57106 -3.1212,1.57106 -0.039,0 -2.7676,-0.98748 -6.0639,-2.1944 -12.1292,-4.44093 -13.1999,-4.82457 -17.0221,-6.09953 l -2.4002,-0.8006 -0.016,-3.02167 -0.016,-3.02167 0.2588,0.0349 c 0.1423,0.0192 0.8194,0.0902 1.5045,0.15773 6.2746,0.6187 12.5539,1.44765 16.3753,2.16177 2.0213,0.37774 3.2915,0.66558 5.8643,1.32898 2.6206,0.67569 3.7075,0.91207 5.7119,1.24223 3.275,0.53945 6.5956,0.87419 11.6059,1.16999 1.8141,0.1071 12.3257,0.10837 14.0061,0.002 5.376,-0.3413 9.1702,-0.82522 12.0009,-1.53064 2.1672,-0.54005 2.7898,-0.91312 4.7609,-2.85271 2.0325,-2.00004 4.2923,-4.52591 10.578,-11.82353 0.8635,-1.0026 1.6211,-1.87685 1.6833,-1.94276 0.1106,-0.11694 0.1133,0.17765 0.1133,12.19215 l 0,12.31199 -0.3798,0.066 c -1.2852,0.22332 -5.2982,0.75513 -7.8234,1.03679 -4.0345,0.45 -5.6004,0.55238 -9.0661,0.59273 l -3.0201,0.0352 -1.0511,1.12981 c -1.6386,1.76134 -3.3074,3.40904 -3.907,3.85766 -0.6558,0.49071 -1.495,0.92098 -2.0356,1.04375 l -0.3949,0.0897 0.3592,-0.0323 c 0.7304,-0.0658 1.7609,-0.67362 2.922,-1.72351 0.3676,-0.33241 0.6782,-0.59455 0.6903,-0.58252 0.012,0.012 -0.2087,0.31736 -0.4905,0.67853 -0.2818,0.36118 -0.7127,0.94379 -0.9576,1.2947 -0.5753,0.82423 -0.658,0.91256 -0.8478,0.90634 -0.086,-0.003 -0.389,-0.0565 -0.673,-0.11921 l 0,0 z m -1.0785,-0.40202 c -0.042,-0.0169 -0.1102,-0.0169 -0.152,0 -0.042,0.0168 -0.01,0.0306 0.076,0.0306 0.084,0 0.1178,-0.0138 0.076,-0.0306 z m -0.6625,-0.1068 c -0.1722,-0.0418 -0.4644,-0.14997 -0.6494,-0.24047 -0.386,-0.18885 -0.4491,-0.3129 -0.5248,-1.03146 -0.045,-0.43177 -0.046,-0.43236 -0.053,-0.10013 -0.01,0.41686 0.087,0.84395 0.2215,0.99274 0.1933,0.21355 0.8106,0.45437 1.1664,0.455 0.084,1.2e-4 0.011,-0.0339 -0.1612,-0.0757 l 0,0 z"
           style="fill:#ffff00;stroke:#000000;stroke-width:3.97680163;stroke-miterlimit:4;stroke-opacity:1;stroke-dasharray:none" />
        <path
           inkscape:connector-curvature="0"
           id="path3830"
           d="m 1367.0509,506.6746 c -0.2841,-0.0635 -1.2138,-0.27096 -2.066,-0.46101 -0.8522,-0.19006 -1.5717,-0.36513 -1.5989,-0.38906 -0.043,-0.0375 0.1995,-1.57845 0.4629,-2.94625 l 0.082,-0.42535 0.044,0.60764 c 0.074,1.02018 0.08,0.96753 0.089,-0.69878 0.01,-1.65016 -0.059,-2.88908 -0.1737,-3.19813 -0.1717,-0.46214 -0.4264,-0.36834 -0.9433,0.34732 -1.0155,1.40621 -1.3215,1.78591 -1.9843,2.46272 -0.7368,0.75238 -1.0719,0.98102 -1.3392,0.91393 -0.2406,-0.0604 -0.6036,-0.33684 -1.5654,-1.19205 -1.4857,-1.32114 -2.3065,-1.88342 -3.8582,-2.64302 -2.9031,-1.42121 -6.576,-2.40153 -9.0005,-2.40232 -1.6435,-5.3e-4 -2.1216,0.19387 -8.2358,3.34878 -1.1584,0.5977 -2.1398,1.08672 -2.1808,1.08672 -0.041,0 -0.6793,-0.22153 -1.4183,-0.49229 -14.8065,-5.42532 -17.1183,-6.25886 -20.9703,-7.56098 l -3.099,-1.04757 -0.016,-3.02169 -0.016,-3.0217 0.2589,0.0362 c 0.1423,0.0199 0.6826,0.0786 1.2006,0.13034 5.8082,0.58032 11.4545,1.29562 15.1303,1.91674 2.7446,0.46378 4.5451,0.8601 8.2448,1.81481 4.041,1.04276 8.3163,1.65575 14.4506,2.07187 4.5334,0.30754 13.5017,0.32356 17.5,0.0313 4.7339,-0.34606 8.0483,-0.80075 10.6337,-1.45876 2.1876,-0.55677 2.739,-0.907 5.017,-3.18675 1.9926,-1.99418 3.5435,-3.72334 8.8334,-9.84875 1.6307,-1.88824 3.0164,-3.4871 3.0794,-3.55301 0.1122,-0.11742 0.1146,0.12925 0.1146,12.19215 l 0,12.31199 -0.3798,0.066 c -1.2938,0.2248 -5.3412,0.76247 -7.793,1.03525 -4.1244,0.45885 -5.6352,0.55745 -9.1294,0.59578 l -2.9923,0.0328 -0.2543,0.28064 c -1.0167,1.12207 -3.4081,3.58978 -3.9606,4.08695 -1.0121,0.91087 -1.8346,1.41307 -2.6748,1.63337 -0.2382,0.0625 -0.3629,0.11505 -0.277,0.11689 0.2475,0.005 0.7797,-0.17164 1.2413,-0.41267 0.5227,-0.27299 1.1553,-0.7435 1.9142,-1.42383 0.3175,-0.28462 0.5851,-0.51015 0.5947,-0.5012 0.01,0.009 -0.3185,0.46668 -0.7291,1.01716 -0.4107,0.55048 -0.8834,1.18976 -1.0505,1.42063 -0.356,0.49192 -0.3971,0.50327 -1.1849,0.32717 l 0,0 z m -1.8533,-0.53717 c -0.8126,-0.23314 -0.9577,-0.39388 -1.0588,-1.17331 -0.045,-0.35026 -0.05,-0.36013 -0.056,-0.11101 -0.01,0.36074 0.094,0.79076 0.222,0.93198 0.1847,0.20407 0.8046,0.45282 1.136,0.45583 0.067,6.1e-4 -0.043,-0.046 -0.2431,-0.10349 z"
           style="fill:#ffd300;fill-opacity:1;stroke:#000000;stroke-width:3.97680163;stroke-miterlimit:4;stroke-opacity:1;stroke-dasharray:none" />
        <path
           inkscape:connector-curvature="0"
           id="path3832"
           d="m 1366.899,506.64505 c -1.7024,-0.36882 -3.4682,-0.78129 -3.513,-0.82063 -0.043,-0.0373 0.1943,-1.54635 0.4624,-2.94614 l 0.082,-0.42535 0.063,0.63802 c 0.061,0.61815 0.063,0.59448 0.07,-0.75955 0.01,-1.65845 -0.068,-2.90977 -0.1949,-3.21407 -0.1791,-0.42849 -0.4834,-0.23892 -1.1603,0.72275 -0.9491,1.34823 -2.237,2.76646 -2.7031,2.97666 -0.4101,0.18489 -0.5899,0.0826 -1.916,-1.08944 -1.0565,-0.93388 -1.4175,-1.22146 -2.0658,-1.64591 -2.7742,-1.81626 -7.3627,-3.31035 -10.4883,-3.41515 -1.8481,-0.062 -2.1427,0.0478 -7.5396,2.8081 -1.7328,0.88627 -3.1811,1.6114 -3.2183,1.6114 -0.037,0 -1.8346,-0.64571 -3.9942,-1.43491 -14.2952,-5.22424 -14.6328,-5.34562 -18.6616,-6.70964 l -2.8256,-0.95663 -0.016,-3.01898 -0.016,-3.01898 0.3196,0.0369 c 0.1758,0.0203 1.4954,0.15941 2.9324,0.3092 7.2883,0.75966 13.0838,1.58741 17.0444,2.43438 0.5514,0.11792 2.1256,0.49909 3.4982,0.84704 4.1386,1.0491 6.3241,1.45082 10.2041,1.87562 3.8365,0.42005 6.4211,0.57336 11.0555,0.65578 4.0279,0.0716 9.3856,0.007 11.336,-0.13584 5.2895,-0.38854 8.7365,-0.86726 11.3933,-1.58232 1.6574,-0.44608 2.4689,-0.94782 4.1176,-2.54584 1.8965,-1.83819 3.8816,-4.04507 9.8885,-10.99296 l 2.6433,-3.05731 0.015,12.29005 c 0.01,6.75953 0,12.30107 -0.01,12.31454 -0.088,0.0879 -5.326,0.79413 -8.4491,1.13924 -3.9728,0.43899 -6.2827,0.57815 -9.6041,0.57857 l -2.1875,3.1e-4 -0.7242,0.77455 c -3.6191,3.87041 -4.5119,4.64784 -5.9598,5.18971 -0.2561,0.0959 -0.2705,0.10856 -0.091,0.0809 0.3002,-0.0463 0.8829,-0.33024 1.4063,-0.68521 0.4022,-0.27284 0.6368,-0.46504 1.6564,-1.35752 0.1638,-0.14342 0.2869,-0.23304 0.2734,-0.19914 -0.014,0.0339 -0.319,0.45658 -0.6789,0.93931 -0.3599,0.48273 -0.8251,1.11012 -1.0337,1.39419 -0.4485,0.61087 -0.4323,0.60636 -1.4108,0.39436 l 0,-2e-5 z m -1.4444,-0.43107 c -0.02,-0.0202 -0.073,-0.0224 -0.1165,-0.005 -0.049,0.0194 -0.034,0.0338 0.037,0.0367 0.064,0.003 0.1,-0.0117 0.08,-0.0319 l 0,0 z m 0.9722,0 c -0.02,-0.0202 -0.073,-0.0224 -0.1164,-0.005 -0.049,0.0194 -0.034,0.0338 0.037,0.0367 0.064,0.003 0.1,-0.0117 0.08,-0.0319 l 0,0 z m -1.4455,-0.13817 c -0.6467,-0.25306 -0.7197,-0.34307 -0.8437,-1.0404 l -0.059,-0.33421 0.032,0.39111 c 0.033,0.39897 0.1259,0.65168 0.2897,0.78758 0.1134,0.0941 0.6432,0.30435 0.767,0.30435 0.05,0 -0.034,-0.0488 -0.1859,-0.10843 l 0,0 z"
           style="fill:none;stroke:#000000;stroke-width:3.97680163;stroke-miterlimit:4;stroke-opacity:1;stroke-dasharray:none" />
        <path
           inkscape:connector-curvature="0"
           id="path3834"
           d="m 1394.4553,485.70621 -0.3139,-12.20764 2.607,-2.98338 c 4.3507,-4.97889 6.5155,-8.42585 7.1197,-11.33636 0.3235,-1.55802 0.4861,-5.65603 0.3898,-9.822 -0.1986,-8.59337 -0.3858,-8.99538 -5.4017,-11.59872 l -3.5135,-1.82362 8.2639,-0.14603 c 4.5451,-0.0803 9.1418,-0.02 10.2148,0.13407 2.4069,0.34555 3.9623,1.75115 9.1147,8.23726 7.5315,9.48108 5.7745,8.2752 22.0301,15.11967 6.1135,2.57409 11.3966,4.83752 11.7403,5.02986 0.4405,0.24652 -0.965,2.38362 -4.7632,7.24267 -7.6106,9.73624 -9.6037,11.12095 -18.7309,13.01365 -3.9725,0.82376 -8.3398,2.29605 -15.8436,5.34109 -11.0241,4.47359 -20.555,7.96263 -21.8267,7.99031 -0.6782,0.0148 -0.8113,-1.47855 -1.0868,-12.19083 l 0,0 z"
           style="fill:#ffd300;fill-opacity:1;stroke:#000000;stroke-width:3.97680163;stroke-miterlimit:4;stroke-opacity:1;stroke-dasharray:none" />
        <path
           inkscape:connector-curvature="0"
           id="path3836"
           d="m 1365.1225,506.54496 c -1.9934,-0.48054 -2.0211,-0.51626 -1.7441,-2.25066 0.3029,-1.8967 0.3173,-2.16959 0.2005,-3.80953 -0.069,-0.97457 -0.2468,-0.89267 -1.8995,0.87732 l -1.823,1.95226 -2.6343,-1.96691 c -3.0825,-2.30157 -6.7741,-3.78862 -10.4891,-4.22525 -2.4592,-0.28903 -2.9974,-0.14781 -7.4032,1.94276 l -4.7512,2.25445 -12.6389,-4.56413 -12.639,-4.56413 -0.1437,-3.21505 c -0.1065,-2.3826 0.019,-3.21491 0.4861,-3.2145 2.4776,0.002 17.1197,2.23983 23.8587,3.64621 6.1494,1.28334 10.1729,1.81293 16.2034,2.13274 11.35,0.60192 24.2682,-0.21866 28.3805,-1.80275 1.2291,-0.47345 4.49,-3.73593 11.263,-11.26844 2.0434,-2.27258 4.6459,-5.10774 5.7833,-6.30036 3.396,-3.56089 7.6807,-9.65345 8.3224,-11.83376 0.8656,-2.94119 0.8354,-16.62908 -0.041,-18.71454 -0.5152,-1.22568 -1.5497,-2.08818 -4.3727,-3.64585 l -3.6978,-2.04035 8.7501,-0.14703 c 5.008,-0.0842 9.4815,0.0657 10.4604,0.35038 2.0452,0.5948 3.9936,2.52945 10.1899,10.1183 3.1162,3.81658 5.3763,6.11024 6.7917,6.89257 1.1667,0.64487 7.1727,3.33923 13.3466,5.98746 6.174,2.64824 11.4197,5.00554 11.6572,5.23846 0.4944,0.48491 -1.5855,3.53495 -6.8547,10.05221 -5.5066,6.81085 -6.9785,7.72762 -16.3927,10.2104 -3.4931,0.92123 -12.4762,4.0458 -19.9623,6.9435 -13.9956,5.41735 -17.6093,6.628 -18.1568,6.08282 -0.1735,-0.17281 -0.4248,-2.86688 -0.5585,-5.98683 l -0.2431,-5.67264 -0.243,6.31646 -0.2431,6.31647 -3.8889,0.57621 c -2.1389,0.31693 -6.7327,0.73014 -10.2084,0.91825 -7.0619,0.3822 -6.9887,0.3497 -10.0454,4.46642 -1.0423,1.40365 -2.0522,2.52583 -2.2442,2.49372 -0.1921,-0.0321 -1.2608,-0.27811 -2.3749,-0.54666 l 0,0 z"
           style="fill:#ffd300;fill-opacity:1;stroke:#000000;stroke-width:3.97680163;stroke-miterlimit:4;stroke-opacity:1;stroke-dasharray:none" />
        <path
           inkscape:connector-curvature="0"
           id="path3838"
           d="m 1364.8978,506.57924 -1.7641,-0.47027 0.2432,-3.24686 0.2432,-3.24686 -1.9707,1.88966 -1.9706,1.88966 -1.9354,-1.53285 c -2.5961,-2.0561 -6.6981,-3.88263 -10.1695,-4.5282 -2.8238,-0.52514 -2.8926,-0.51003 -7.9522,1.74839 l -5.1037,2.2781 -12.6086,-4.5263 -12.6087,-4.5263 -0.1437,-3.27319 c -0.1301,-2.96306 -0.055,-3.27318 0.7978,-3.27318 2.103,0 15.7199,2.00131 21.4336,3.15012 11.6981,2.3521 15.013,2.64431 27.9819,2.46667 12.5309,-0.17164 17.2634,-0.75412 19.8392,-2.44182 0.653,-0.42791 3.8939,-3.77292 7.2019,-7.43337 3.308,-3.66045 6.7514,-7.42633 7.652,-8.36864 2.8042,-2.93415 7.3424,-8.77769 8.4513,-10.88212 0.9371,-1.77845 1.0813,-2.94196 1.2435,-10.03262 0.1009,-4.41147 -0.012,-8.78648 -0.25,-9.72225 -0.4342,-1.70391 -1.7154,-2.78393 -6.7694,-5.70649 l -1.8822,-1.08843 10.3075,0.1162 10.3076,0.1162 2.0258,1.94445 c 1.1141,1.06945 4.05,4.35071 6.524,7.29169 2.474,2.94098 5.0233,5.8314 5.6651,6.42315 1.2969,1.19568 6.2563,3.55851 18.751,8.9335 4.605,1.98096 8.3784,3.86582 8.3855,4.18857 0.02,0.90824 -7.179,10.24343 -10.4386,13.53637 -3.4521,3.4874 -5.3969,4.46019 -13.0014,6.50338 -3.1396,0.84354 -9.483,2.96824 -14.0966,4.72157 -17.6853,6.72113 -21.0754,7.9584 -22.5852,8.24301 -1.6977,0.32002 -1.8575,0.0568 -2.2434,-3.69523 -0.096,-0.93576 -0.2099,-0.22482 -0.2527,1.57987 -0.043,1.80469 -0.2757,3.28126 -0.5176,3.28126 -0.2418,0 -3.359,0.31915 -6.9271,0.70923 -3.568,0.39007 -7.9092,0.74409 -9.6471,0.78669 l -3.1597,0.0775 -3.1929,3.34526 c -1.7561,1.8399 -3.3967,3.32266 -3.6458,3.29503 -0.2492,-0.0276 -1.2469,-0.26187 -2.2172,-0.52052 l 0,0 z"
           style="fill:#ffd300;fill-opacity:1;stroke:#000000;stroke-width:3.97680163;stroke-miterlimit:4;stroke-opacity:1;stroke-dasharray:none" />
        <path
           inkscape:connector-curvature="0"
           id="path3840"
           d="m 1364.5741,506.60046 -1.6018,-0.46185 c -9.4768,1.21848 -11.6675,-0.50633 -19.1005,-2.38599 -1.5297,0.77039 -8.813,-2.43598 -9.1512,-2.43598 -0.3382,0 -10.4285,5.69963 -15.6957,0.61904 l -40.6587,-6.09516 19.5021,-19.33458 6.0738,1.12774 8.0771,4.16455 c 4.8715,2.51174 14.6742,0.7599 22.589,2.27438 11.9258,2.28197 20.0523,0.94595 32.1566,-0.0644 8.6369,-0.72091 10.7663,-0.54626 15.1268,-4.98812 6.4903,-6.61134 13.5225,-18.70746 16.0237,-22.32032 1.615,-2.33293 0.013,-3.9844 0.3237,-5.62107 0.6255,-3.29789 -2.1778,-7.2702 -2.8878,-8.53472 -0.3053,-0.54386 0.027,-3.02589 -1.6048,-3.95252 -5.342,-3.03237 -0.1795,-8.62697 10.756,-5.76213 l 10.605,-1.93384 5.9502,4.9435 c 1.2503,1.03878 4.2463,2.99753 6.8531,6.08996 0.5197,-0.93195 39.6887,24.9512 35.2771,22.91376 5.2582,0.003 -10.5403,13.97692 -14.7194,17.88598 -2.4241,2.26745 -9.2595,5.46407 -12.3689,6.11345 -3.3822,0.70635 -11.8446,3.71596 -22.8728,7.92386 -6.1911,2.36227 -14.2124,3.59712 -15.4805,3.91641 -6.7454,2.96975 -18.0018,4.90117 -23.7204,5.25332 -2.8233,3.21568 -6.7057,1.45641 -9.4517,0.66465 l 0,0 z"
           style="fill:#ffd300;fill-opacity:1;stroke:#000000;stroke-width:3.97680163;stroke-miterlimit:4;stroke-opacity:1;stroke-dasharray:none"
           sodipodi:nodetypes="cccsscccssssssssscsccsssccccc" />
        <path
           inkscape:connector-curvature="0"
           id="path3844"
           d="m 1301.4349,523.84388 -8.9687,-1.88787 -23.3334,-1.30942 c -35.0552,-1.96721 -99.4926,-5.47774 -111.6419,-6.16313 -11.2282,-0.63343 -18.6122,-1.38912 -19.2161,-1.96658 -0.5657,-0.54098 5.5573,-7.71667 14.1199,-16.54748 5.2916,-5.45727 8.2272,-8.08008 10.6474,-9.51261 6.2332,-3.68952 27.5119,-13.15789 45.6764,-20.32458 10.4583,-4.12626 13.8981,-5.22389 14.7401,-4.70351 0.3237,0.20006 0.9217,1.97311 1.3288,3.94012 0.7935,3.83392 2.0188,6.66307 3.3719,7.78581 1.418,1.17655 4.5028,0.7044 12.44,-1.90397 4.19,-1.37696 8.2534,-2.50356 9.0298,-2.50356 1.2494,0 4.0892,2.10926 3.487,2.58991 -0.1124,0.0898 -3.0228,0.52409 -6.4674,0.9652 -6.43,0.82338 -9.6658,1.90827 -9.9276,3.32852 -0.2013,1.09216 2.6337,3.83948 5.8767,5.69492 l 2.6591,1.52139 16.7061,-10.84878 c 6.1765,-4.01102 13.4033,2.23281 17.8384,1.60972 5.9107,-0.8304 12.2188,-0.73224 15.3097,0.84613 1.3848,0.70709 -1.3308,3.96847 1.191,0.12698 -10.5589,16.56878 69.4832,13.85152 76.2744,14.77484 -12.4956,26.85898 -52.6245,3.74696 -50.5993,22.71599 0,0.2813 1.213,3.93343 2.3048,5.7712 2.1495,3.61819 1.6039,8.21503 -0.3483,8.21071 3.8926,4.79486 -10.8039,0.5549 -18.0227,-1.89022 z m -98.2526,-30.40226 c -0.4537,-0.45371 -0.7129,-0.45371 -1.1666,0 -0.4537,0.4537 -0.3241,0.58333 0.5833,0.58333 0.9074,0 1.037,-0.12963 0.5833,-0.58333 z m 6.4253,-10.2648 c 0.4812,-0.35188 0.7935,-1.06282 0.6939,-1.57987 -0.2549,-1.32346 -3.9592,-1.3771 -4.2126,-0.061 -0.4123,2.14076 1.5705,3.0654 3.5187,1.64087 z"
           style="fill:#ffd300;fill-opacity:1;stroke:none"
           sodipodi:nodetypes="ccsscsssssssscssscssscccsccccsscsccs" />
        <path
           inkscape:connector-curvature="0"
           id="path3848"
           d="m 1362.1125,463.37858 c -0.5266,-1.18948 -0.5383,-1.7614 -0.06,-2.91668 0.8229,-1.98665 2.4217,-1.9726 2.4217,0.0213 0,0.80209 -0.2187,1.45834 -0.4861,1.45834 -0.2674,0 -0.4861,-0.32813 -0.4861,-0.72917 0,-0.40104 -0.2188,-0.72917 -0.4861,-0.72917 -0.2674,0 -0.4861,0.54688 -0.4861,1.21528 0,0.89121 0.2592,1.21528 0.9722,1.21528 1.1536,0 1.3048,1.22669 0.2033,1.64939 -0.4229,0.16228 -0.807,0.29506 -0.8536,0.29506 -0.046,0 -0.3793,-0.66582 -0.7396,-1.47961 z"
           style="fill:#000000;fill-opacity:1;stroke:#000000;stroke-width:3.97680163;stroke-miterlimit:4;stroke-opacity:1;stroke-dasharray:none" />
        <path
           inkscape:connector-curvature="0"
           id="path3850"
           d="m 1368.3634,465.34431 c 0,-0.64815 -0.3241,-0.97223 -0.9722,-0.97223 -0.7562,0 -0.9722,-0.32407 -0.9722,-1.45834 0,-0.80208 0.2187,-1.45833 0.4861,-1.45833 0.2673,0 0.4861,0.54687 0.4861,1.21528 0,0.6684 0.2187,1.21528 0.4861,1.21528 0.2674,0 0.4861,-0.21875 0.4861,-0.48611 0,-0.26737 0.2188,-0.48612 0.4861,-0.48612 0.2674,0 0.4861,0.32813 0.4861,0.72917 0,0.40105 0.2188,0.72917 0.4862,0.72917 0.2673,0 0.4861,-0.65625 0.4861,-1.45834 0,-0.80208 0.2187,-1.45833 0.4861,-1.45833 0.9423,0 0.5139,3.02155 -0.5605,3.95341 -1.3448,1.16632 -1.8701,1.1482 -1.8701,-0.0645 z"
           style="fill:#000000;fill-opacity:1;stroke:#000000;stroke-width:3.97680163;stroke-miterlimit:4;stroke-opacity:1;stroke-dasharray:none" />
        <path
           inkscape:connector-curvature="0"
           id="path3854"
           d="m 1374.3183,463.07791 c -0.8389,-0.3385 -0.7632,-1.4588 0.1215,-1.7983 0.5268,-0.20215 0.7292,0.0533 0.7292,0.92022 0,0.66001 -0.055,1.18276 -0.1215,1.16165 -0.067,-0.0211 -0.395,-0.14871 -0.7292,-0.28357 z"
           style="fill:#000000;fill-opacity:1;stroke:#000000;stroke-width:3.97680163;stroke-miterlimit:4;stroke-opacity:1;stroke-dasharray:none" />
        <path
           inkscape:connector-curvature="0"
           id="path3862"
           d="m 1374.6829,452.70538 c 0,-0.26736 0.2187,-0.48612 0.4861,-0.48612 0.2674,0 0.4861,0.21876 0.4861,0.48612 0,0.26736 -0.2187,0.48611 -0.4861,0.48611 -0.2674,0 -0.4861,-0.21875 -0.4861,-0.48611 z"
           style="fill:#000000;fill-opacity:1;stroke:#000000;stroke-width:3.97680163;stroke-miterlimit:4;stroke-opacity:1;stroke-dasharray:none" />
        <path
           inkscape:connector-curvature="0"
           id="path3940"
           d="m 1364.9775,482.48754 c -0.3918,-0.15405 -1.048,-0.68903 -1.4583,-1.18886 -0.5343,-0.65084 -1.67,-0.99364 -4.0014,-1.20775 -2.2283,-0.20466 -3.343,-0.52764 -3.5334,-1.02377 -0.4598,-1.19822 -2.6883,-14.82286 -2.6894,-16.44266 -10e-4,-1.52906 1.2342,-3.11354 2.4273,-3.11354 0.3577,0 0.4977,-0.15265 0.3111,-0.33922 -0.4603,-0.46036 7.4996,-8.40889 8.4304,-8.41825 0.5846,-0.006 0.6052,-0.0928 0.098,-0.41429 -0.9328,-0.59146 1.8943,-2.84105 4.1803,-3.3263 0.9947,-0.21116 4.8711,-0.38393 8.6141,-0.38393 8.0163,0 9.7145,0.60805 12.5077,4.47857 1.6398,2.27225 5.7216,9.43701 5.7216,10.04313 0,0.16761 -1.2578,0.34151 -2.7952,0.38646 -2.1485,0.0628 -2.3453,0.1209 -0.8507,0.25109 1.0695,0.0932 2.4491,0.28243 3.0658,0.42059 1.3272,0.29731 1.2513,0.68986 -1.1468,5.93065 l -1.6127,3.52431 -2.0976,0.0575 c -1.9005,0.0521 -1.9606,0.0887 -0.6392,0.38953 1.455,0.33127 1.4505,0.33712 -2.0373,2.62105 -4.6589,3.05084 -7.4441,4.26998 -11.8169,5.17251 -3.1373,0.64752 -3.6676,0.90505 -3.8012,1.84623 -0.1427,1.00449 -0.4006,1.09062 -3.1598,1.05538 -1.6524,-0.0211 -3.3249,-0.16441 -3.7167,-0.31845 l 0,0 z"
           style="fill:#150000;fill-opacity:1;stroke:#000000;stroke-width:3.97680163;stroke-miterlimit:4;stroke-opacity:1;stroke-dasharray:none" />
        <path
           transform="translate(770.3676,271.78324)"
           d="m 617.86105,184.16498 c 0,5.35822 -3.81401,9.70192 -8.51883,9.70192 -4.70481,0 -8.51882,-4.3437 -8.51882,-9.70192 0,-5.35823 3.81401,-9.70193 8.51882,-9.70193 4.70482,0 8.51883,4.3437 8.51883,9.70193 z"
           sodipodi:ry="9.7019243"
           sodipodi:rx="8.5188246"
           sodipodi:cy="184.16498"
           sodipodi:cx="609.34222"
           id="path3942"
           style="fill:#fdfeff;fill-opacity:1;stroke:none"
           sodipodi:type="arc" />
        <path
           sodipodi:nodetypes="cccc"
           inkscape:connector-curvature="0"
           id="path3944"
           d="m 1008.8784,1202.4977 103.2263,-158.3532 36.9446,120.556 -5.8333,17.5"
           style="fill:none;stroke:#000000;stroke-width:3.97680163;stroke-linecap:butt;stroke-linejoin:miter;stroke-miterlimit:4;stroke-opacity:1;stroke-dasharray:none" />
        <path
           inkscape:connector-curvature="0"
           id="path3956"
           d="m 1210.9488,1245.6597 -50.0198,-46.8936 c 0,0 15.0059,5.002 21.8837,5.002 6.8777,0 15.6311,-6.8777 15.6311,-6.8777 l 39.3906,17.5069"
           style="fill:none;stroke:#000000;stroke-width:3.97680163;stroke-linecap:butt;stroke-linejoin:miter;stroke-miterlimit:4;stroke-opacity:1;stroke-dasharray:none" />
        <path
           inkscape:connector-curvature="0"
           id="path3958"
           d="m 1362.2587,1467.6225 -5.002,-11.8797 c 0,0 4.3767,-5.0019 8.1282,-5.0019 3.7515,0 10.6292,5.6272 10.6292,5.6272"
           style="fill:none;stroke:#000000;stroke-width:3.97680163;stroke-linecap:butt;stroke-linejoin:miter;stroke-miterlimit:4;stroke-opacity:1;stroke-dasharray:none" />
        <path
           inkscape:connector-curvature="0"
           id="path3960"
           d="m 1471.677,1506.3879 -6.2525,-15.006 c 0,0 1.8757,-8.1282 4.3767,-6.8777 2.501,1.2505 11.2545,8.7535 11.2545,8.7535"
           style="fill:none;stroke:#000000;stroke-width:3.97680163;stroke-linecap:butt;stroke-linejoin:miter;stroke-miterlimit:4;stroke-opacity:1;stroke-dasharray:none" />
        <path
           inkscape:connector-curvature="0"
           id="path3962"
           d="m 1491.0596,1420.729 c 0,0 -18.7574,-12.505 -19.3826,-8.7535 -0.6253,3.7515 1.8757,16.2565 1.8757,16.2565 l 1.8757,4.3767 0,0"
           style="fill:none;stroke:#000000;stroke-width:3.97680163;stroke-linecap:butt;stroke-linejoin:miter;stroke-miterlimit:4;stroke-opacity:1;stroke-dasharray:none" />
        <path
           inkscape:connector-curvature="0"
           id="path3964"
           d="m 1532.3259,1428.8572 c 0,0 -1.8757,-15.6312 1.2505,-16.8817 3.1263,-1.2505 8.7535,-5.002 8.7535,-5.002 l 4.3767,8.1283"
           style="fill:none;stroke:#000000;stroke-width:3.97680163;stroke-linecap:butt;stroke-linejoin:miter;stroke-miterlimit:4;stroke-opacity:1;stroke-dasharray:none" />
        <path
           inkscape:connector-curvature="0"
           id="path3966"
           d="m 1636.7423,1490.7567 c 0,0 -6.8778,-11.8797 -5.6273,-15.6312 1.2505,-3.7515 12.505,-5.6272 12.505,-5.6272 l 10.6292,7.503"
           style="fill:none;stroke:#000000;stroke-width:3.97680163;stroke-linecap:butt;stroke-linejoin:miter;stroke-miterlimit:4;stroke-opacity:1;stroke-dasharray:none" />
        <path
           inkscape:connector-curvature="0"
           id="path3968"
           d="m 1352.8799,1186.2612 -20.0079,0.6252 -20.0079,6.8778 -5.002,11.2544"
           style="fill:none;stroke:#000000;stroke-width:3.97680163;stroke-linecap:butt;stroke-linejoin:miter;stroke-miterlimit:4;stroke-opacity:1;stroke-dasharray:none" />
        <path
           inkscape:connector-curvature="0"
           id="path4018"
           d="m 1438.7867,1484.8606 c -10.0852,-19.1656 -16.0409,-28.6482 -20.1187,-32.0325 -1.3359,-1.1087 -5.0557,-5.9232 -8.2663,-10.699 -3.2106,-4.7758 -7.5481,-10.6684 -9.639,-13.0947 -2.0908,-2.4262 -5.3443,-8.2483 -7.2299,-12.9379 -2.5611,-6.3694 -6.9036,-12.2806 -17.164,-23.3648 -7.5546,-8.161 -13.9031,-13.9831 -14.1078,-12.938 -0.2047,1.0452 2.4453,17.7493 5.8889,37.1203 3.4437,19.3711 6.1561,35.3706 6.0277,35.5545 -0.1284,0.1839 -2.3267,-0.4557 -4.8849,-1.4213 -3.9374,-1.4862 -5.3108,-1.3772 -8.9479,0.7102 -3.1771,1.8234 -4.4466,2.0064 -4.8723,0.7025 -0.3167,-0.9699 -2.2943,-8.2324 -4.3947,-16.1389 -6.7823,-25.5308 -10.6343,-36.1466 -15.1861,-41.851 -2.4524,-3.0735 -7.7315,-12.3807 -11.7313,-20.6826 -4.0016,-8.3056 -10.9321,-19.6201 -15.4096,-25.1572 -4.4755,-5.5345 -15.178,-19.4429 -23.7833,-30.9074 -16.2797,-21.6889 -37.2937,-40.6891 -59.3826,-59.1043 -12.6013,-10.5055 -59.6585,-53.6118 -59.6585,-54.6496 0,-0.2858 3.8063,-1.0641 6.1138,-0.5573 7.9289,1.7414 15.4047,1.0711 21.2371,-1.9044 l 5.8421,-2.9804 17.4556,6.6068 c 18.406,6.9667 14.3602,0.6509 25.0188,13.0756 5.9183,6.8989 17.8269,25.3219 20.9929,29.6074 5.2378,7.0902 26.9016,27.9815 54.8493,52.8936 5.9123,5.2701 13.5235,10.6919 16.9138,12.0484 4.0898,1.6365 5.9082,3.1336 5.4034,4.4488 -0.4575,1.1923 1.7005,3.8386 5.4146,6.6397 3.3964,2.5616 10.3328,7.8023 15.4142,11.646 5.0815,3.8438 9.0634,7.8235 8.8489,8.844 -0.2411,1.1468 2.3666,2.5619 6.8284,3.7054 5.7072,1.4627 7.2265,2.4703 7.2571,4.8128 0.029,2.2498 2.3161,3.9805 9.5035,7.1924 5.2057,2.3264 12.4659,6.5715 16.1338,9.4336 3.668,2.8621 15.7359,10.4117 26.8178,16.7769 11.0818,6.3651 23.6963,13.841 28.0323,16.613 l 7.8835,5.04 -0.4878,8.8287 c -0.4854,8.7841 -0.5208,8.8481 -7.0012,12.6459 -7.7177,4.5228 -6.737,4.9384 -24.9965,-10.5915 -6.974,-5.9314 -13.3437,-10.5599 -14.155,-10.2856 -0.8113,0.2743 9.5127,17.2021 22.9421,37.6172 13.4294,20.4151 24.4172,37.3357 24.4172,37.6012 0,0.2655 -1.1948,0.1703 -2.6551,-0.2116 -4.4028,-1.1513 -6.6255,6.2321 -3.865,12.8388 1.2141,2.9057 2.2074,5.6273 2.2074,6.048 0,0.4207 -4.4715,0.7649 -9.9367,0.7649 l -9.9368,0 z"
           style="fill:#ffd300;fill-opacity:1;stroke:#000000;stroke-width:3.97680163;stroke-miterlimit:4;stroke-opacity:1;stroke-dasharray:none"
           sodipodi:nodetypes="scscsscscsscssssssssscsssscccsssccssscsssssscssscs" />
        <path
           inkscape:connector-curvature="0"
           id="path4020"
           d="m 1618.7647,1486.3002 c -4.597,-0.4766 -5.8132,-1.3245 -7.3858,-5.1491 -1.0354,-2.5182 -5.2058,-12.6944 -9.2676,-22.6138 -7.9474,-19.4087 -16.7003,-31.6437 -25.192,-35.2142 -3.3497,-1.4084 -5.7657,-4.5416 -10.1499,-13.1627 -4.6357,-9.1155 -8.4564,-13.9093 -19.6611,-24.6683 -11.0369,-10.5979 -14.6401,-13.2582 -17.4577,-12.8888 l -3.5503,0.4653 7.7059,16.52 7.7059,16.5199 -4.5423,2.3489 c -5.0487,2.6108 -6.6107,5.4779 -6.7606,12.4099 -0.1104,5.1058 -1.3708,5.5832 -8.3325,3.1564 -4.2783,-1.4914 -4.3637,-1.7182 -5.3377,-14.169 l -0.9899,-12.6533 -8.6878,-10.6288 c -4.7783,-5.8459 -9.8291,-12.066 -11.224,-13.8225 -2.3339,-2.9388 -4.8455,-3.3909 -31.472,-5.6641 -15.9146,-1.3588 -28.9356,-2.8973 -28.9356,-3.4191 0,-0.5217 4.3665,-2.7719 9.7035,-5.0004 11.6827,-4.8782 11.3596,-4.6424 9.2515,-6.7505 -1.3053,-1.3054 -0.8209,-2.6131 2.0958,-5.6574 3.3903,-3.5388 3.6132,-4.387 2.0975,-7.9817 -2.8471,-6.7524 -10.5875,-13.941 -79.5278,-73.8582 -36.5922,-31.8029 -67.1394,-58.3659 -67.8826,-59.0287 -0.8288,-0.7391 -0.4482,-3.099 0.9841,-6.1024 1.9649,-4.1206 3.7753,-5.3671 11.4141,-7.8587 4.9933,-1.6287 13.1411,-3.1027 18.1062,-3.2757 l 9.0275,-0.3144 67.8814,59.5512 c 37.3348,32.7532 74.674,66.1021 82.976,74.1088 16.3572,15.7753 17.8163,16.6869 44.5644,27.8426 21.6326,9.0222 20.6332,8.4456 18.6918,10.7849 -1.2203,1.4704 2.7644,6.3883 17.747,21.9031 16.768,17.3637 19.6478,21.045 21.7974,27.8642 1.9165,6.0799 6.9893,13.5198 22.4256,32.8899 l 19.9489,25.0326 -6.575,1.6695 c -9.7969,2.4875 -11.284,4.5088 -8.7431,11.884 l 2.0619,5.9845 -4.504,-0.2416 c -2.4771,-0.133 -6.9803,-0.4984 -10.0071,-0.8123 l 0,0 z"
           style="fill:#ffd300;fill-opacity:1;stroke:#000000;stroke-width:3.97680163;stroke-miterlimit:4;stroke-opacity:1;stroke-dasharray:none" />
        <path
           inkscape:connector-curvature="0"
           id="path4028"
           d="m 1140.298,1177.3568 23.0009,24.4384"
           style="fill:none;stroke:#000000;stroke-width:3.97680163;stroke-linecap:butt;stroke-linejoin:miter;stroke-miterlimit:4;stroke-opacity:1;stroke-dasharray:none" />
        <path
           sodipodi:nodetypes="ccc"
           inkscape:connector-curvature="0"
           id="path4030"
           d="m 1175.3198,1214.0307 31.2041,29.4116 c 15.6038,1.6896 -8.9718,-1.6324 -31.2041,-29.4116 z"
           style="fill:#ffffff;fill-opacity:1;stroke:#000000;stroke-width:3.97680163;stroke-miterlimit:4;stroke-opacity:1;stroke-dasharray:none" />
        <path
           inkscape:connector-curvature="0"
           id="path4032"
           d="m 1246.562,1212.54 c -10.55,-1.0844 -15.3752,-2.5521 -30.0599,-9.1433 l -17.4927,-7.8516 -7.8255,3.8287 -7.8257,3.8287 -10.2724,-2.4554 c -9.3162,-2.2268 -11.096,-3.2698 -19.1179,-11.2034 l -8.8454,-8.7481 2.7149,-7.8911 2.715,-7.8912 -18.5232,-60.3082 c -10.1877,-33.1696 -18.9466,-60.7318 -19.4643,-61.2494 -0.5176,-0.5176 -1.3911,-0.2465 -1.9411,0.6026 -0.55,0.849 -23.6415,37.6049 -51.3144,81.6799 -45.5071,72.4797 -50.3616,79.6764 -50.81,75.3238 -1.015,-9.8529 7.4271,-60.3424 21.3046,-127.4168 3.9729,-19.2024 7.2235,-37.5542 7.2235,-40.7818 0,-3.8064 8.5772,-31.1902 24.4109,-77.93441 13.4261,-39.63635 28.606,-87.45814 33.7332,-106.27062 10.2072,-37.45211 9.6996,-36.28496 47.9596,-110.2696 16.369,-31.65326 24.6105,-43.62326 54.9325,-79.78421 28.6171,-34.12782 43.2074,-46.83938 73.4115,-63.95867 4.8704,-2.76045 9.1803,-5.86612 9.5776,-6.90152 0.3973,-1.03541 -0.7211,-3.41909 -2.4854,-5.29708 -2.1096,-2.24555 -5.1343,-10.41457 -8.8349,-23.86109 -3.0948,-11.24559 -6.8315,-23.16947 -8.3036,-26.49747 -2.6022,-5.88262 -10.5707,-13.42182 -14.6544,-13.86484 -4.7874,-0.51935 17.916,-2.33436 31.12,-2.48787 12.9627,-0.15071 15.9925,0.35061 29.3929,4.86341 8.2173,2.76729 15.114,5.03143 15.3262,5.03143 0.2122,0 1.0721,-1.28245 1.911,-2.84989 1.2232,-2.28567 0.7685,-3.99331 -2.2968,-8.62532 -2.1021,-3.17649 -4.3983,-5.77543 -5.1026,-5.77543 -11.8955,0 -51.0622,-7.63121 -51.0622,-9.65651 0,-1.16957 18.2604,-5.37843 26.9555,-5.37843 3.4307,0 13.9674,0.43963 23.8454,3.72446 17.7354,5.89776 29.1054,3.61051 23.2447,3.51332 -10.3877,-0.17227 10.3361,0.16428 15.4355,4.77917 1.3353,1.2084 3.9339,0.0414 4.6916,-0.42681 0.7576,-0.46824 1.7484,0.11529 2.2018,1.29673 1.1275,2.93835 5.15,2.69754 8.7284,-0.52253 2.0008,-1.80051 7.183,-3.22635 15.9057,-4.3764 9.3183,-1.22857 17.2145,-3.4978 28.2238,-8.11105 8.4071,-3.52289 16.6759,-6.40525 18.3749,-6.40525 6.5376,0 12.666,-4.14549 20.0854,-13.58649 4.1734,-5.31054 7.3727,-9.81112 7.1096,-10.0013 -0.2632,-0.19017 -6.9474,-2.98586 -14.854,-6.21263 -13.2587,-5.41109 -14.8871,-6.51957 -20.9608,-14.26857 l -6.5854,-8.40171 -13.181,-0.41334 c -14.5628,-0.45666 -18.5796,1.45344 -10.3653,6.29996 4.8078,2.8367 5.0312,3.32966 5.0261,11.09256 0,5.56101 1.3116,8.93316 -0.6383,12.13128 -3.3962,5.57017 -4.715,5.99409 -3.4923,1.12257 0.9211,-3.67 -3.3893,-12.63119 -7.8004,-16.21689 -1.2702,-1.03253 -6.2445,-1.79694 -11.6933,-1.79694 -9.4544,0 -9.5036,0.0211 -16.4381,7.06152 l -6.9554,7.06151 0.9973,9.31228 0.9973,9.31228 6.0601,2.3144 c 7.3971,2.82497 8.2676,2.84313 13.3947,0.2794 2.2384,-1.11926 6.0105,-2.87747 8.3825,-3.90715 2.3719,-1.02967 4.9595,-2.16241 5.75,-2.5172 0.7906,-0.35478 -0.7534,1.88861 -3.4311,4.98532 -2.6777,3.0967 -6.559,3.97254 -8.6252,4.9252 -5.188,2.39209 -32.0034,4.7091 -42.5706,2.24635 -4.7439,-1.10561 -12.5067,-2.41704 -17.2506,-2.91429 -15.7728,-1.65329 -17.8906,-2.1909 -17.0687,-4.33281 1.1543,-3.00811 -6.8666,-6.51641 -14.8455,-6.49333 -3.7948,0.0109 -14.1514,1.48886 -23.0145,3.28418 -15.0086,3.04014 -16.3286,3.10295 -19.2294,0.91488 -3.1121,-2.34747 -3.1109,-2.3501 1.5595,-3.28419 2.5708,-0.51416 6.534,-0.93483 8.8072,-0.93483 4.5623,0 4.9813,-0.91834 2.1318,-4.67205 -2.5124,-3.30974 -7.7115,-3.17845 -16.8551,0.42563 -4.1042,1.61774 -7.9884,2.41519 -8.6315,1.77211 -0.6431,-0.64308 -1.7062,-3.74566 -2.3626,-6.89462 -0.8787,-4.21574 -1.9051,-5.72689 -3.8929,-5.73111 -2.0886,-0.004 -3.1168,-1.79397 -4.543,-7.90654 -1.0139,-4.34545 -1.8709,-8.18357 -1.9043,-8.52916 -0.034,-0.34559 1.873,1.2245 4.2367,3.48908 2.3637,2.26458 4.6704,3.74471 5.1259,3.28917 0.7448,-0.74474 -1.1413,-9.53161 -3.1942,-14.88145 -0.5609,-1.46163 -0.1084,-1.81764 1.5171,-1.19384 1.9026,0.7301 2.3367,-0.22996 2.4299,-5.37452 0.107,-5.90548 0.196,-6.03749 1.5574,-2.31013 1.9989,5.47323 3.7882,4.94044 4.8275,-1.43755 0.4832,-2.96496 1.4391,-6.68463 2.1242,-8.26594 1.2015,-2.7731 1.2492,-2.76336 1.343,0.27455 0.1769,5.72759 2.483,4.75249 5.8719,-2.48286 3.499,-7.4707 5.7258,-9.12767 5.7258,-4.26068 0,4.81225 2.7411,3.22797 5.9919,-3.4632 1.7034,-3.50616 3.8437,-6.045 4.79,-5.68189 0.9408,0.36104 3.4944,-1.68223 5.6746,-4.5406 2.5107,-3.29171 4.7468,-4.89663 6.0992,-4.37765 1.2262,0.47052 3.254,-0.55916 4.7628,-2.41846 l 2.6276,-3.23783 0.9959,3.95327 c 1.1699,4.64401 1.6745,4.7762 5.4868,1.43756 2.7618,-2.41858 2.8292,-2.4047 1.747,0.35939 -0.6191,1.5813 -1.4775,4.10833 -1.9077,5.61561 -0.9686,3.39368 0.6059,2.56167 10.2828,-5.43384 5.8132,-4.8031 6.8455,-5.25482 6.0127,-2.63087 -1.0729,3.38064 0.036,3.95174 3.4631,1.78419 1.37,-0.86638 2.4633,-0.78145 3.0949,0.24041 0.6527,1.05617 3.1334,0.31604 7.4817,-2.23222 7.7995,-4.57079 8.6167,-4.67387 7.4307,-0.93717 -1.1591,3.65212 -1.338,3.67768 10.0629,-1.43755 11.0189,-4.94386 11.8064,-5.1232 9.3153,-2.12159 -1.0002,1.20509 -1.5399,2.46964 -1.1994,2.81011 0.3404,0.34047 5.4461,-0.63443 11.3459,-2.16644 13.0985,-3.40132 13.0091,-3.3981 11.8697,-0.42884 -0.6793,1.77022 -0.3323,2.17914 1.3133,1.54767 2.5498,-0.97847 32.1766,-7.53157 40.311,-8.91635 3.242,-0.5519 5.3909,-0.34571 5.3909,0.51725 0,0.84577 3.0988,1.19867 7.5471,0.85947 4.151,-0.31652 6.0916,-0.24105 4.3127,0.16771 -1.779,0.40876 -3.2345,1.43434 -3.2345,2.27906 0,1.04312 3.5743,1.21586 11.141,0.53843 9.8682,-0.88347 10.8223,-0.76222 8.3509,1.06128 -3.058,2.25633 -3.0839,2.24776 20.7596,6.86299 11.0775,2.14421 49.767,20.16577 71.4098,33.26269 11.6836,7.07016 14.2037,9.1603 12.5249,10.38786 -1.6828,1.23047 0.3101,2.9601 9.9985,8.67781 7.7083,4.54913 11.8366,7.82803 11.3739,9.03376 -0.3995,1.041 0.4869,2.81141 1.9697,3.93426 2.4807,1.87847 2.4951,2.0452 0.1803,2.08727 -4.1308,0.0751 -2.8548,1.9225 4.9962,7.23348 l 7.4377,5.03144 -4.5997,0.45047 c -2.5298,0.24776 -4.5997,0.92169 -4.5997,1.49763 0,0.57594 2.883,3.87661 6.4067,7.33482 6.7868,6.66084 7.1168,8.6865 1.415,8.6865 -1.93,0 -3.509,0.72504 -3.509,1.61121 0,0.88616 6.1455,8.94375 13.6567,17.90574 7.5112,8.962 13.6568,17.01526 13.6568,17.89614 0,1.94344 4.7233,8.98914 23.3597,34.84492 13.5116,18.74584 14.2139,20.07362 13.3432,25.22723 -0.7678,4.5446 0.1958,7.91271 5.8547,20.46419 3.7256,8.26335 7.6087,16.31806 8.6291,17.89937 2.3725,3.67644 7.5358,24.21419 14.9983,59.65847 l 5.902,28.03229 -0.9481,33.78251 c -1.9637,69.9639 -4.564,107.36478 -8.4457,121.47326 -9.1365,33.20811 -34.7296,100.27992 -43.0246,112.75444 -16.8056,25.27331 -94.7328,117.51331 -109.5533,129.67481 -9.9097,8.1318 -33.6145,23.8747 -59.6209,39.5956 -28.4116,17.1749 -80.1474,46.4561 -82.0815,46.4561 -0.7582,0 -5.2231,-1.9407 -9.9219,-4.3126 -11.4285,-5.7691 -23.5696,-5.9508 -38.3431,-0.5738 -8.3906,3.0538 -10.6363,4.5385 -12.0586,7.9723 -2.7128,6.5494 -6.8648,11.111 -12.9293,14.2049 -4.6465,2.3704 -8.2163,2.8032 -21.7868,2.6413 -8.9263,-0.1065 -21.885,-0.7749 -28.7971,-1.4853 z"
           style="fill:none;stroke:#000000;stroke-width:3.97680163;stroke-miterlimit:4;stroke-opacity:1;stroke-dasharray:none"
           sodipodi:nodetypes="cscccsscccsssssssssssscssssssssssssssscsssssscsscsscssssscccssssssssscsssssssscscsssscssssssssssscssssssssssssssssssssssssssssssscsssssssssssscsssssssssssc" />
        <path
           inkscape:connector-curvature="0"
           id="path4034"
           d="m 1237.4331,1213.2774 c -10.0633,-1.5371 -16.3717,-6.4821 -24.9601,-10.2074 -11.3656,-4.9298 -16.1072,-8.532 -21.6976,-5.5401 -9.7107,5.197 -25.5674,1.3394 -34.34,-8.3541 -3.7184,-4.1089 -7.4075,-16.2948 -8.198,-27.08 -1.6315,-22.2596 -30.8975,-116.1216 -36.715,-117.7525 -2.0987,-0.5884 -24.8575,32.7387 -50.5751,74.0602 -25.7174,41.3216 -47.3296,72.4449 -48.0269,69.163 -0.6974,-3.2818 5.1624,-40.3833 13.0218,-82.4477 19.8382,-106.1787 71.989,-271.46671 107.8359,-341.77808 38.1524,-74.83338 80.441,-128.2312 124.9509,-157.77517 11.9807,-7.95235 21.7832,-16.24844 21.7832,-18.43575 0,-5.45059 -16.0243,-52.59918 -21.1003,-62.08371 -3.8866,-7.26216 -2.6721,-7.57337 21.7062,-5.56216 14.2027,1.17172 30.1007,3.48177 35.3289,5.13345 8.339,2.63449 9.3371,1.81058 8.132,-6.71311 -1.2114,-8.56804 -4.3766,-10.16084 -26.7863,-13.47933 -13.9769,-2.06975 -25.4126,-5.52772 -25.4126,-7.68438 0,-4.07557 24.4225,-1.94611 65.0563,5.67243 32.3039,6.05676 40.0953,5.36646 76.9648,-6.81905 22.1344,-7.31551 35.8861,-14.42029 41.3458,-21.36121 l 8.1807,-10.39998 -18.7152,-9.51131 c -10.2933,-5.23123 -19.7377,-12.17606 -20.9875,-15.43297 -1.4775,-3.85021 -8.0939,-5.92164 -18.9146,-5.92164 -12.944,0 -15.558,1.08427 -11.763,4.87922 2.6835,2.68357 4.8236,8.63012 4.7556,13.21455 -0.113,7.61355 -0.4826,7.71918 -4.2681,1.2198 -5.1593,-8.8579 -23.2735,-9.25431 -35.3804,-0.77427 -7.0663,4.94946 -8.4661,8.74226 -6.3777,17.28057 1.4717,6.01662 4.6811,12.45915 7.1322,14.31674 2.4511,1.85759 -9.1081,2.39639 -25.6869,1.19734 -16.5789,-1.19905 -31.4748,-4.33427 -33.102,-6.96715 -1.9323,-3.12658 -10.7296,-4.14262 -25.3622,-2.92917 -18.6041,1.54279 -22.0113,0.83549 -20.0903,-4.17055 1.849,-4.8183 -0.2011,-5.52555 -10.2126,-3.52325 -10.3309,2.06618 -13.6732,0.75412 -19.0732,-7.48729 -3.8526,-5.8798 -4.7301,-9.99248 -2.132,-9.99248 2.4284,0 3.8429,-3.56343 3.1432,-7.91874 -0.856,-5.32884 6.042,-14.61711 21.091,-28.39937 22.5833,-20.68231 29.8771,-24.11911 34.6832,-16.34265 1.6904,2.73511 4.3271,2.87401 7.3555,0.38749 4.0866,-3.35547 28.9266,-6.98149 73.8428,-10.77921 6.7089,-0.56725 20.4317,-2.28069 30.4951,-3.80763 23.6959,-3.59545 70.2618,8.33072 109.3129,27.99653 28.9116,14.55965 71.9429,52.09993 67.6615,59.02748 -1.2477,2.01866 -0.2843,4.89664 2.1411,6.39552 2.4253,1.49889 3.4346,5.26605 2.2429,8.37147 -1.1917,3.10543 11.3581,24.41941 27.8884,47.3644 16.5303,22.945 31.4128,47.2073 33.0722,53.91622 1.6594,6.70893 6.3066,19.64396 10.3271,28.74454 21.8511,49.46103 28.3709,118.60449 19.7529,209.48219 -5.7031,60.14076 -32.2884,135.47739 -60.1346,170.40777 -84.878,106.4714 -101.5636,122.6083 -193.9752,176.5679 -12.6671,7.3964 -23.3732,37.2686 -58.8752,22.3201 -23.1855,-9.7624 -34.4589,1.6948 -44.4068,11.6427 -19.4987,19.4987 -20.4773,14.4784 -58.5062,8.6698 z"
           style="fill:#a28234;fill-opacity:1;stroke:#000000;stroke-width:3.97680163;stroke-miterlimit:4;stroke-opacity:1;stroke-dasharray:none"
           sodipodi:nodetypes="csssssssssssssssssssscsssssssssssssssssssssssscssssssssscc" />
        <path
           sodipodi:nodetypes="ccc"
           inkscape:connector-curvature="0"
           id="path4042"
           d="m 1590.629,506.59413 -64.0755,-27.46093 -32.6916,10.46131 30.0763,28.76859 -37.9223,53.61419"
           style="fill:none;stroke:#000000;stroke-width:3.97680163;stroke-linecap:butt;stroke-linejoin:miter;stroke-miterlimit:4;stroke-opacity:1;stroke-dasharray:none" />
        <path
           inkscape:connector-curvature="0"
           id="path4044"
           d="m 1412.7868,569.36196 74.5368,2.61533"
           style="fill:none;stroke:#000000;stroke-width:3.97680163;stroke-linecap:butt;stroke-linejoin:miter;stroke-miterlimit:4;stroke-opacity:1;stroke-dasharray:none" />
        <path
           inkscape:connector-curvature="0"
           id="path4046"
           d="m 1278.0975,590.28457 81.0751,1.30766 58.8448,-23.53793"
           style="fill:none;stroke:#000000;stroke-width:3.97680163;stroke-linecap:butt;stroke-linejoin:miter;stroke-miterlimit:4;stroke-opacity:1;stroke-dasharray:none" />
        <path
           sodipodi:nodetypes="csssssssssssssssssscsssscsssscccsssssssssssssscssscsscccccsscccscc"
           inkscape:connector-curvature="0"
           id="path4048"
           d="m 1308.2649,589.76016 c -26.4084,-0.36148 -25.9679,-1.34674 -27.7879,-2.89373 -10.8706,-9.24008 -11.9233,-25.88827 -18.5508,-49.10766 -3.0355,-10.63521 -14.3336,-17.06495 -13.5746,-17.82393 1.5798,-1.57985 42.0909,-2.27769 61.934,3.99463 6.3767,2.01565 12.6365,1.86428 13.4865,1.33898 2.2618,-1.39789 0.5707,-11.54935 -2.4226,-14.54273 -1.7053,-1.70521 -8.4575,-3.69179 -21.6547,-6.371 -21.3781,-4.34005 -25.7561,-5.68818 -25.7561,-7.93119 0,-2.42079 21.7314,-0.49485 53.3535,4.72844 37.3762,6.17373 48.1441,6.1698 69.7892,-0.0255 31.0309,-8.8817 48.3817,-16.73477 57.8137,-26.16671 3.3436,-3.34357 6.6778,-7.19774 7.4095,-8.56482 1.4774,-2.76071 2.0464,-2.33363 -17.1929,-12.90465 -5.8349,-3.20596 -14.0476,-8.89733 -18.2505,-12.64749 -6.6723,-5.95353 -8.5725,-6.93477 -14.9805,-7.73539 -7.2904,-0.91088 -18.3987,-0.26937 -19.8122,1.14416 -0.4061,0.40612 0.5064,2.75254 2.0278,5.21427 1.5214,2.46173 3.1058,7.34738 3.5208,10.857 l 0.7546,6.38114 -3.6985,-4.11801 c -5.1441,-5.72736 -8.2448,-6.99713 -17.0864,-6.99713 -8.869,0 -19.4958,4.53744 -24.0034,10.24898 -3.4678,4.39402 -2.8703,11.86413 1.6851,21.06903 l 3.1878,6.44131 -3.0056,0.75434 c -3.8887,0.97601 -34.302,-1.33705 -43.4906,-3.30765 -3.8997,-0.83633 -8.9009,-2.62469 -11.1138,-3.97412 -3.4826,-2.12367 -6.7813,-2.45418 -24.5363,-2.45841 l -35.2202,10.54589 -4.2464,-10.00494 15.2567,-5.5288 -17.1857,2.3843 c -5.0715,0.70361 -3.2084,6.93465 -7.8335,-1.88227 -2.9837,-5.68793 -3.9228,-10.58624 -6.0234,-9.31176 -6.5983,4.00331 5.8053,-14.04764 5.8053,-16.47794 0,-7.02965 23.806,-59.3615 21.4939,-40.41868 -2.3267,19.06338 13.4525,-15.51634 11.1983,-11.98454 -1.6325,2.55779 4.2879,5.65304 5.5897,7.09147 2.6035,2.87686 52.4067,-25.02177 25.8276,-1.58803 -1.1592,1.02202 17.6376,-11.46467 22.5608,-12.84389 13.7331,-3.84728 94.4383,-11.7534 106.5723,-11.7534 31.7892,0 81.6739,25.78421 114.5985,47.73836 14.693,9.79736 58.8718,42.50938 39.3226,33.9807 -4.1753,-1.82154 8.9013,13.10894 8.9013,15.12093 0,1.94784 -10.0135,2.1602 -8.5751,3.98886 1.4385,1.82867 11.5783,10.59326 11.5913,12.83372 0.013,2.24045 -8.1845,4.92484 -6.1027,8.70071 2.0818,3.77588 12.8678,13.25972 12.6366,13.25972 -0.2313,0 -24.0836,-9.62104 -39.172,-16.73453 l -25.3231,-11.93867 -14.6002,5.13437 c -7.4017,2.60294 -13.0128,2.29082 -15.2515,3.50754 l -2.8895,1.5704 13.4785,13.32687 15.7165,14.92547 12.7318,33.95018 11.2712,66.59839 -61.8258,18.0161 c -11.1661,3.25379 -15.5106,41.59057 -38.4775,31.85857 l -28.4324,-12.04795 -51.0036,-14.32691 -32.5104,-25.42281 11.0273,-26.18989 c 2.3837,-5.66131 -23.669,-0.47064 -38.9523,-0.67984 z"
           style="fill:#000000;fill-opacity:1;stroke:#000000;stroke-width:3.97680163;stroke-miterlimit:4;stroke-opacity:1;stroke-dasharray:none" />
        <path
           inkscape:connector-curvature="0"
           id="path4050"
           d="m 1094.1591,868.87513 22.1918,62.87671 144.2465,-258.90409 44.3836,51.78082 -55.4795,140.54793 48.0822,133.1507 66.5754,51.7808 55.4794,25.8904 -229.315,133.1507 -14.7946,-3.6986"
           style="fill:none;stroke:#000000;stroke-width:3.97680163;stroke-linecap:butt;stroke-linejoin:miter;stroke-miterlimit:4;stroke-opacity:1;stroke-dasharray:none" />
        <path
           sodipodi:nodetypes="cssssscssscscccssssssc"
           inkscape:connector-curvature="0"
           id="path4052"
           d="m 1161.0733,1196.4859 c -5.9587,-4.8343 -4.4388,-3.3104 -18.6541,-18.8447 -23.3254,-25.4897 -21.1857,-121.184 -27.5717,-131.2906 -4.408,-6.9762 -3.4778,-8.167 -54.4928,69.7564 -21.7944,33.2904 -40.3054,58.491 -41.1352,56.0014 -4.1493,-12.4479 20.7391,-128.5178 45.5837,-212.58491 21.9445,-74.25384 24.9357,-83.32951 27.4608,-83.31825 1.1844,0.005 6.9,13.44872 12.7013,29.8743 9.2556,26.20576 11.1028,29.03674 15.077,23.10683 2.491,-3.71683 35.0246,-61.68252 72.2969,-128.81265 37.2723,-67.13013 68.0341,-122.42999 68.3595,-122.88857 0.3255,-0.45858 9.7926,10.14816 21.0381,23.57054 l 20.4464,24.40433 -27.5609,70.03767 -27.5608,70.03766 45.2409,15.50138 c 35.1894,12.05733 1.9116,113.62927 3.2002,116.02927 5.4723,10.1922 67.0942,-16.66043 88.3326,-7.5844 12.7141,5.4332 45.7629,82.6416 33.2096,90.959 -27.9273,18.5036 -52.2624,21.7463 -105.3328,55.5019 -84.9777,54.0504 -102.1688,70.1727 -119.8855,72.3456 -16.8998,2.0728 -24.029,-6.3467 -30.7532,-11.8022 z"
           style="fill:#614728;fill-opacity:1;stroke:#000000;stroke-width:3.97680163;stroke-miterlimit:4;stroke-opacity:1;stroke-dasharray:none" />
        <path
           inkscape:connector-curvature="0"
           id="path4064"
           d="m 1363.1943,1486.7872 -0.01,-20.001 -2.4383,-5.4347 -2.4384,-5.4347 2.1589,-1.6982 c 3.268,-2.5706 5.4801,-2.8042 9.0942,-0.9605 5.5918,2.8528 5.5665,2.7565 4.453,16.8808 -1.496,18.978 -3.2493,25.5422 -9.1258,34.1654 l -1.6926,2.484 0,-20.0011 0,0 z"
           style="fill:#000000;fill-opacity:1;stroke:#000000;stroke-width:3.97680163;stroke-miterlimit:4;stroke-opacity:1;stroke-dasharray:none" />
        <path
           inkscape:connector-curvature="0"
           id="path4066"
           d="m 1491.6479,1461.043 c -0.4192,-0.7969 -1.0268,-3.7689 -1.3501,-6.6043 -0.6858,-6.0138 -4.1077,-12.2436 -11.0311,-20.0833 -4.0306,-4.564 -4.4943,-5.5179 -5.643,-11.6085 -0.6884,-3.6498 -1.1341,-7.6048 -0.9904,-8.789 l 0.2613,-2.153 6.2098,3.2267 c 16.9137,8.7886 19.6401,12.7341 21.155,30.6143 l 0.572,6.751 -3.1155,5.0475 c -3.2103,5.2012 -4.7459,6.1119 -6.068,3.5986 z"
           style="fill:#000000;fill-opacity:1;stroke:#000000;stroke-width:3.97680163;stroke-miterlimit:4;stroke-opacity:1;stroke-dasharray:none" />
        <path
           inkscape:connector-curvature="0"
           id="path4068"
           d="m 1528.2794,1456.1487 c 2.0832,-6.5636 3.8843,-18.4534 4.2717,-28.1992 0.2495,-6.2754 0.6276,-12.245 0.8404,-13.2658 0.2507,-1.2029 1.8112,-2.5779 4.4343,-3.9071 l 4.0474,-2.051 1.2543,1.9144 c 1.6375,2.499 3.0422,10.2494 3.0422,16.7844 0,9.0012 -5.9978,21.5104 -12.649,26.3813 -5.344,3.9136 -5.8052,4.1198 -5.2413,2.343 z"
           style="fill:#000000;fill-opacity:1;stroke:#000000;stroke-width:3.97680163;stroke-miterlimit:4;stroke-opacity:1;stroke-dasharray:none" />
        <path
           inkscape:connector-curvature="0"
           id="path4070"
           d="m 1643.0144,1510.8003 c -3.3455,-9.9481 -6.0352,-18.7391 -5.977,-19.5356 0.058,-0.7964 -0.9888,-3.862 -2.3266,-6.8125 -3.9133,-8.6305 -3.1981,-10.5666 4.7648,-12.8979 3.3022,-0.9668 3.6695,-0.8891 7.5389,1.5939 5.6804,3.6451 6.5283,4.8584 7.0181,10.043 0.7411,7.8444 -2.5001,41.1411 -4.3397,44.5824 -0.3511,0.6568 -3.0929,-6.3114 -6.6785,-16.9733 l 0,0 z"
           style="fill:#000000;fill-opacity:1;stroke:#000000;stroke-width:3.97680163;stroke-miterlimit:4;stroke-opacity:1;stroke-dasharray:none" />
        <path
           inkscape:connector-curvature="0"
           id="path4072"
           d="m 1494.5503,1547.9796 c -0.2107,-0.3415 -1.1557,-3.875 -2.1,-7.8522 -1.6877,-7.1081 -4.7777,-14.2128 -9.0741,-20.8634 -2.1993,-3.4045 -10.9236,-15.4375 -11.7467,-16.2016 -0.7171,-0.6657 -4.9496,-11.0811 -4.947,-12.1736 0,-1.4494 1.8226,-5.2137 2.5195,-5.2137 0.3275,0 2.7644,1.6842 5.4154,3.7427 3.8701,3.0052 6.6092,6.4722 13.9004,17.5943 4.9943,7.6184 9.5562,15.1557 10.1376,16.7495 1.1939,3.2731 0.8676,8.7387 -1.0996,18.4223 -1.1967,5.8903 -1.996,7.4318 -3.0055,5.7957 z"
           style="fill:#000000;fill-opacity:1;stroke:#000000;stroke-width:3.97680163;stroke-miterlimit:4;stroke-opacity:1;stroke-dasharray:none" />
      </g>
    </g>
  </g>
</svg>
